<mxfile host="app.diagrams.net" agent="Mozilla/5.0 (Windows NT 10.0; Win64; x64) AppleWebKit/537.36 (KHTML, like Gecko) Chrome/139.0.0.0 Safari/537.36" version="28.1.1">
  <diagram name="Halaman-1" id="Qbn9rTmW_xbmt8SI0Uy0">
    <mxGraphModel dx="1426" dy="777" grid="1" gridSize="10" guides="1" tooltips="1" connect="1" arrows="1" fold="1" page="1" pageScale="1" pageWidth="827" pageHeight="1169" math="0" shadow="0">
      <root>
        <mxCell id="0" />
        <mxCell id="1" parent="0" />
        <mxCell id="RQTw91TnuGu3f8tLTRjR-1" value="" style="shape=image;verticalLabelPosition=bottom;labelBackgroundColor=default;verticalAlign=top;aspect=fixed;imageAspect=0;image=data:image/png,iVBORw0KGgoAAAANSUhEUgAAAVQAAAFkCAYAAAB/6MMYAAAAAXNSR0IArs4c6QAAAARnQU1BAACxjwv8YQUAAAAJcEhZcwAADsMAAA7DAcdvqGQAAJOHSURBVHhe7J13fBzF2ce/M7t7d+rN3bgbdzC4YsB0TIlpgQQSCCFACKQAeUnyJrQXQgIkAQIJLfRiSigGDBgDLrj33nuTJVuS1a/v7rx/7N1ZkiVX2ZHJfPncx2hvb3a2/eaZZ555RgSDQcW3DCkExeVB2hVk4TMNvnUnqNFoWiSy4YaDRggsvw+/dfhFaTQazbHM4amgEBANsnTyTCYtK8NBNNxDo9Fo/ms4LEEVUuKEapg3cSrfrCzDRWpJ1Wg0/7WIeCymhFAoBK5jo4SBIQUChR23cRIOSGGY+EyBUgAuCANlx4nbLq7toAwDw5CYloWBixKgXIHAJR53GvVjGpaJIUApgRSKeNzGbWzHg0T7UDUazX8CMX3mfFVSWEFYZDFoRC/8Ozcwd20VRnYew0/rR9s0QEpqCzcxc0ERNY5Bu64dCQR3YXXpw4ntLdYuWkFFXk+Gdw2wbvEKSq08KClhV9Ahv/vxjDypLaZy6wmbYULpuvXMW1lCyDbI69iewYO6kmeplIgfKlpQNRrNfwLDyBzyQEaun+3LljNj2TY2rtuN8tmsmr2CLXYBQ/q3xilcxUsvfcOyUmid47Bi9lKmzdiI0e14TmonmPz+Jyx0unF6d4vpH4/ng6nbiVrp+ILFTJu2GqdjT/q29aesT2EY7F4yh3+9PZdiO40cq4o5Xy9jWyyd43u1JU2qwxJBIQS14TiZ6X4MeVheDY1Gozlg5EkXn8tNN13MDy7sh9hRSo/vXMStP72E7w5rxa7la9np2Cz7ZjlFRidu+Z8ruO6HF3LrT06jR7YPKYU3yu/z4TcFIDBNg+y+J/Ozmy7gxlvOZ1g7weLFO3BlwrsqDKzoLr6atIZY12Hc+auLuPa6y7jjJwOp3bmL4t0Rr1yNRqM5xpDt26ZjCJPc3HRystvSo3sayrXIyjQRwsV2g5SUxsls35lO2QJHCfJataZzJz9OI31z13Xp0KGAgCUhzU9ewA/VQUIIDCkxTImoDVMWsWnXuwu5BjhK0O7k07nvzvPp28aH3Ui5Go1G09KRylWAQimFUgLD+wuv061QKoM2rUyCO7ezo0ZhSkX17t0UFkaRxt6WpACUqv8RQmJgs2X5SqYvKiaemU6B32DXum1UO2BKRcmyWTzyj0msKY1hNlKuRqPRtHSk7SpAoFyHWDSOkwgvVbZNNBonbvs4+ewTaBPdxr/+/gnv/Psrnnt1OusqYyjXU8x4LEbU9gQ4HosTs13wSsWOx4k6IKuL+XzsFMa8PZkVkQ5cfG4fjI1zefLZL3n37XE89fJirIIC2uYFcJtjqF+j0WiOMsY999zzQEGGiXIVVlYOXXu0IcMQKCCjdRu6dykgK681/XrmQixG1PXTe8hABvfJpUOX42iX40MYFm06daRTqwDSNGnT6Tg6twoghAJl0qpTO7p2zSPd9NOhazf6H59L/nEd6XtcJvFwhKjKoPcpJ3HR2b3It9zDDp3Sg1IajeY/gYiGQ8p2FMIwsCyJHYvjKpCmiWVAPGrj7isO1QHTZyFdm5it6vy/6w1S+UwM5RKNu1iWiRQu8ZiDq+NQNRrNtwyhk6NoNBpN86D7wxqNRtNMaEHVaDSaZkILqkaj0TQTWlA1Go2mmdCCqtFoNM2EFlSNRqNpJrSgajQaTTOhBVWj0WiaCS2oGo1G00x8a2dKFe0O0rF1tp4ppdFojhpHRFC9+fje/Pz/BEJAZW2UcMxBCJ0KUKPRHB2OiKC2FJzmyLSi0Wg0B8i3WlA1Go3maPIfGZQyDDDNhlsPDiHA5wO/3yvvYBECLMv7t0UhJaLBxRGmeWgnWRfDAJ0bVqM5ojR4wySB9DR8lsHhjuQYhid2QkAgsOddFgJ27RJs2pTMrXrwCAHRKMycaTBxoqSoSByUMAoBsRisWyeJRI6uqArLalrYhMCtrSW6cRO4bqpi0U2bsUtKDqui8cId2GW7D6sMjUazb/a82cLAMncz/pW3mbp8J8Jq4qU/AKSELVsEn39uUF0N773n/SulJ7Ljxhk89JCPeHzP+13338be+eT25CcWg9mzBXfe6eOdd8x6Fm9jv08ihGcdl5UJ/vhHi6IiUU/s9/XbfdLwh3Urm/hbuS6hJUuxS0r3tjiFQBgGkfXr2fnoX3HDYYRhgGGw85FHqfz4E+/vBr/Zb6UTxy177XWqv5qISLZyGo2m2fGkRJoY4U2M+euf+Mcr7zFxcTHSMjjU187vh5UrJcuWSSorBZMmGfj93oJ9VVVw1lkOv/51DNP0toFnkDkOVFd71mdSO5J6EQx63wWDYNuQnQ2//32cyy5zMIw95Sjlfd+wXBJWcyzmlWPbnuVMogEAqKmB2lrveE0ZkXthGAjLQkVjoBRCSnBc3Joa7xMKefs5Lk5pGZWffEp00yZUOIyyvYoJw0BFIrjV1d7fPh8AynFwa2pofdtt5Fx0ESp5IokKuqEQbk2Nd5L7qbCwLDAM3Jpa3GAodWGVbXtiblkNf6LRaA4SCQLDVGxdNIdY10v48ehuGPLQpFQIT7zmzJFMn25QWQkTJxpUVcGWLRKl4J//NPne9/y89pqFUp4OlJcLbr3Vzx/+4OOKKwJcdlmAJUtkSnD/9S+Tyy/3c+WVfu6+28fu3Z5VGY0KotE9dTVNWLNG8vvf+6isFKSlwb/+ZfHwwxaGAVu3Cm6+2cdll/n5y18sqqs9P2o0Cn//u1ev0aMDPP20Vc96bgwhJTI9Hbt4J+XvvkfpCy+iXIVdXU3hH+5m09XXsvkHP6Lo/gdRtk142TK2/fxXlL85hqK772PLj28ivGwpIhAguHARm37wIzb98Hoq3n7PE07DwC6voPB3f2DzDT+hdu48z0JNWLIVH4xl0/d+wKarr6Xo/x7CqaltUlS90xBUf/Y5W378EzZecRW7X38TpKBm4iRKnnmO8LLlyPR0LawazWEgQeHEHDqNvJZbvn8G2Ub8sNyntg2zZnm+zbIywTvvGNTUCBYvlrgu3H+/ze9+ZxONeuIrhCeaixcLTjzRYdasCN/5js1zz5koBV99JZk0yeDdd2PMmBHlmWditGmjsO2GR/ZwHAiH91iosZgnmI4Db75pMny4y4wZEb7zHYeiIoHfr/j0U4NduwSTJkX44osIkyZJpkwx9uqVJxGGgRsOs+vxv7PzsSeIrFpF/g+vwchIp2byN9jllfSa/BW9Jn1Jp6eeQJgm6UMG0+XVF8m5+CI6v/g8PT75kIwhQ3Brayl74SVa/+rn9PpqPFaHdjhVVeAqrNat6PLS82Sfey5ubS3gWcDhlauo+uhjOj3zD46fOAEVibD7ldcSlWukFZASt6oSDINu773DcY/9lcpPPyO2eStZo85Hpqez+6232XHfA4QWL05ZyBqN5uBImTTKsYnbzmGJqVKexffjH8c5+2yX++6LM2qUy//8T5zrr7cxDE/YEr3MFK4LPXsqzjvPxXHguOMUjuMJ4cKFBoMHu3TooAiFIB73jtOYbiSp+12y+15VJaioEAwa5C0eeNJJLr16KcJhwbp1ki+/NBg9OsB11/lZtUpSVVW3xD0I0yRWWMiOe+5HxWK0uvEGOj3yZ8zWrXFjMTJOGQbxGOsv/A7lH36ESpq6ykXFYijH8f6New1XfNcuVDRKxqCTcWMxss4+EzMnB5QLSqFi8XoDVAhBeOVKZHY2/q6dEUKQefaZRNau8br/jV0Y10VmZpJz0QVInw8jJxsjIxOnthYZ8NP257fS4b578Xftwu5X3qB2xsy9/bUajWa/NN5HPER8Pli+XPL97/t5912D66/38cILJo8+avH115J9GT51B5WSrkISIt2YRjRFcv9E77heaFTdskTCN6uUp1c//rHDK6/EePbZGHPmRLj8cqdRK1jZNlbbtrS69aeEV6+m/J1/UzVpsid8SuHr2JEur7xI29/8D2UvvEThb36XMJcFJI4vjDqXPdmCNazYvkia30kvt/DKTm4XluV13xMuAIXn61XJ/V03Ye160RzBRYupGPsRNZOmkH3xhaQPGYxy69wEjUZzQDSroMZiMGyYy1132fz85zYvvhjjRz9yGDs2ytlnu8RintD5fJ6Apqd7/yZFLaUTCW2QEk4+2WXRIklpqSA93RtISgqm3+8JpmV5ZUoJ6emKsjJBebknzAsWCOJxQU6OIjdXsWyZBBTLl0vWrhWkpSkGDHCZN8/z2XbtqsjLU57mNIWUpPXuTdfXXiH7vHMo//f7lL/7b1CKePFOpN9Pzvnn0fnpJ4lt3e514YVAWCbKtnGqa5CWhZACq20bhGURXrYCw+ejdtoM7IoKb3/TRAYCCNNE+H0InzdCH+jTB6eqitiOIpCS2hkz8PfsiczORhgG4SVLKX32+VQ5kLigdS8wnhDXzp5D6Qsv4YZCdH31RbIvHOUJ8eF0VTSa/1L2ElQhDQwhDvl9UgrWrRMMHuyydaukoMBFSm97UZHg6qv9PPaYyfjxkksv9TN2rIFlecJa10gzTU9kL7zQ4ZRTXL7/fT/nnuvnV7/yUV4umDdPcuGFfj78UPLCCwbf+56fhQslvXsr+vd3ufZaP1dd5aO2FnJzFVLCNdfYTJ1qcM45ASZMMOjTxyUeF1x8scNppzl873s+Ro3yc8stPioq9oRTNYZyHFQkQva559D5qSfIGHQywjSpnTaNjVdcxfrRl7H11l+Qe+lojOxslONg5OcTOOEEtv/6t2y86mqCCxYis7LIv+HH7Hr876wbfRnxklJ8XbqAlFRPm8b6iy+h6suvKPn7P9jyoxuIrFxFxpDB5F/zfQp/fRfrz78IZTsU/OTHCCEQpkFw4SJ2PvYEdnk5IjHAKKRMWayIRMiDcvF16ECH++6hza9+gXJdzx+j0WgOib2mntqxCI6w8FuH7kOLRvcIolKe9UiiK19R4QXhS+n5QzMzPasyHPYszuT2ZFhT0u+6e7fAcbyycnK8QanKSpFyFTiOtz0Q8H5bXu4JSVaWJ6aJqCGqqgTBIGRlgWUpjMSsLdf1jmHb3r5JET4gEtaksm1UJIJTXZMysc1WrTwBS/gblG3jVlaiXBcjJwfh9yOEwK6oREUiGPl5XpGmiYrGcKqrET7LG/lXYORke7GkKJzd5ai4jZGXhwz4U2FVKh5HxWKItLQ93f5oDKRA+CwvrCsaQ/p84Pd5davrZ9FoNIfEXoKKEIn3/1Bt1Pq9zKSfMklDkUr2RBvu1/Dvur9LdscblpXcXtcNmSwj+W/D7/a3/aCpWxB1KpWkqQMlt9etcMOyaFBe8gI0rHDyd3X3rVt2Y39rNJrDZm9B1Wg0Gs0hcaCdWo1Go9HsBy2oGo1G00xoQdVoNJpmQguqRqPRNBNaUDUajaaZSEV6Swl2PEo4HMF2FbJhTJJGo9Fo9okIBkNKGlC55EueeHs8peVVyHaDuPlXtzO4LdiOjqrSaDSaA0ECGCrI1lIfl9/2EK+++SKXt9nBOx9PIeSah5xkWqPRaP7bkKCIuxkMunAUQ7vl4mCRl58BQRtHyVRCI41Go9Hsm+TcReKxGDYmlKxh9rIoJ47sR4bP0bMTNRqN5gDZM/IkDMzwBl559jXUsB/y/eFdIaYzD2k0Gs2B4gmqMLCsCj57/nlWZY/ilquHkIl9yCn8NBqN5r8RiZD4zGrGP3k//1qazaihbVg7fwazl24l4moXqkaj0RwoIhiOKBkqZfqED5m3NYxULko5iLyTuf66c8i3dJY3jUajORC89H1CYvkDWHVj+ZVNOBzT3X6NRqM5QHQ+VI1Go2km9PxSjUajaSa0oGo0Gk0zoQVVo9FomgktqBqNRtNMHFFBNU1v6eaWhmmaOj2hRqNpdlKqIk2LtPR00tPTSQv4kIcZ0a8UbNkiKSsTe62E3BSm6X2OJEopNm7cSFVVFeJAKwb4fD7S0tJSvxFCkJaWht/vb7grAFJK0tLSSEtLa/iVRqP5lmLcc889D0jLoGrDAj758CO+mTWXVbscOnXuRLrpHlJQv5QQjcL//I+PWAyGDnVxnIZ71UdKWL1aEAwKcnOPzGQCIQSRSISf/vSntGrVigEDBuDsr2KAZVnMmDGDL774gr59++Lz+YhEIrz88stEo1G6du2K67qp/Q3DoLq6mjfeeIOVK1fSr1+/gxJvjUZzbCIRBv7ILr6ePpMS2Y5+x7ejaMYbvDhuGTGsQ5p66jje59e/jnP++Q52IseKUiAE2DaEQt7fhuH9GwzC55+bLF0qiMW8ffaH67rE43GEEMRisdR227YJh8OEw2GUUikxcxwH13W59957GTZsGPF4HBJWq5SSaDRKJBJBCJFyCZimycyZM3nhhRdo164dpmmilMKyLHJycnj66adZuXIlPp8PEqIthOCtt95i3LhxtG/fXrsXNJr/EkQwGFRCOYRiLhlZOQTMGNOfvZsx1afw8O2XkS7iKOV1YZOiQUK07EZUT0ooLBTccYePLVsEf/pTnNGjvTSA8+ZJXnnFRAhYsULQqxf87W9RwmHB7bf7WLJEkpuraNNGceONNt/73h4xbsirr77KqlWrWLZsGd/97nd59913+f73v8/PfvYzHnvsMcaPH48Qgj59+vDwww/ToUMHFixYwB//+Ee2bdvGY489xtlnn43ruowZM4YlS5awefNmCgsLGT16NL/5zW/w+/0Eg0Fuu+02rrvuOi699NJ6Ip2WlsY//vEP1q5dy8MPP1xPVB988EEsy+KBBx4gGo2ijoTJrdFoWhQSQAmLrEybpZ+9wz/+/k9mVPfm5mvOIMP0hFBKSUVFBZ988glffPEF48aNY+XKlZiNODxdFzp1Urz3XpThw13Ky/f4UCMRmDbN4Cc/sZk1K4rrwrvvmnTrpnjnnShXX+3wyCNxJk2KcuWVTYuplJKtW7fSrl07fvzjHzNnzhwefvhh1q9fT3V1NbfeeiuzZ89m+vTp5OXlMXnyZBzH4YQTTuDtt9+mZ8+eBIPBlCVaXl7OnDlzePHFFxk3bhzTp09nwYIF+Hw+Vq5cieu6jBw5MiWmJKzaWCzG6NGj2b59O8uXL0dKiWEY+P1+4vE4hmE02uhoNJpvJ6kE064ryWzdnp7du5BrbWfOimLijoFIiEdaWhrFxcW8/fbbzJw5k+zs7CatLqUgHt/Txa/LiBEOgwa52DZ07qyoqRG4riIe98Q4Hve6+3Vcknvhui65ubmcdNJJ5Ofn07NnT/Ly8ohGo/h8PoqKirj22mu55JJL+Oqrr+p17ZP/n3QDJLv7l19+OQUFBWRkZFBQUEAwGERKyZIlS8jLyyMQCOx1vo7j0K5dO7KystiwYQOWZTFv3jyuuuoq8vPzuf7663Fdd6/faTSabycSEqKnMjh++Eguvuwqvje8E7NnzaQ6bCOEJzqBQIAbb7yRUaNGcccdd9CpU6cDGtCpixBgWZ5YKuX929C9eKBhVkkXRNIv6roupmmyfPlyHnzwQW688UZeeOEFzj///P3WM2lZKqVSZSUF13VdDMNo0g+atHJd18W2bQYMGMCf/vQn1q1bx9dff41xoCek0WiOeaQQgkhtkN1lZRimASi2bd2KkAEsy0xlm0oKzdVXX01BQcE+u7KWBenp3r9+vxcK5Qlzwz33YBjeQFZVlcA0vd/uj4aWnxCCkpISTNNk+PDh5OTksGrVqtQIvGVZpKenYxgGgUCgnlA2LIvEOQ8YMIDdu3cTDof3Gqk3DIOSkhKqqqro3r17quHp0aMHnTp1Ytu2bTiOs9fvNBrNtxOJNLBiZUx4+UFu++Ud3PHzm/jXEoMfXX0F2dbea0rtrwtrWfDBBwaXXeZnwgSDv/zF5IYbfBQVeUJZV1uE8D6uK8jI8MKrnnrK5OKL/Xz0kbHPmNSkSNX9VylFv3798Pl8XHjhhfziF7+gQ4cOpKenA/Dmm28yevRoZs6cyT333MOtt97K7t2797IikyLrOA4nnngijuOwaNGiejGlQgh8Ph/z58+nc+fODBgwAKVUPSvXMAysA2kZNBrNtwJvlB+HYE0VtWEHUPgy88jPSkM5B78MihBQUyOoqgKfz7M6AVq1UggB0aggPd0rNRz2hCkQ8L5zXSgr88KmcnIgK0vtJehJIpFIKoTJtu1UbGhmZiahUIjy8nJ8Ph+5ubkopfD7/VRVVVFTU4Pf78e2bYQQtG7dOuVX9fv9KKUIhUL4/X5M08Q0Tb788kveeecdbr31VgYNGoRhGLiuy/Tp03n55Zf5n//5H4YOHZoK3fL5fLz22mtMnjyZO++8kwEDBjSovUaj+TaSyocqpKwTc6pw3SaU7ABIWp51cd26Fume/UgMYiX/rrutKTGljmWa/H/XdVO+TJGIBaVOV14lQp0adr/r+kuT+yat3SSWZfH555+zbNkyfvnLX5Kenk4oFOIf//gHgwcP5sILL0yJMgkLNxQK8dJLLyGl5NZbb23SB6vRaL496ATTB4jP58M0zXpxqIFAANd1iUajDXdHCIHf70cIQTgcbvi1RqP5FqIFVaPRaJoJ3Q/VaDSaZkILqkaj0TQTWlA1Go2mmTjmBdXvP7BJABqNRnOk2UtQhZD7jldqQUgJzz9v8sEH5gFPWRX7mbF1sNi2TTQaTc3GAjAMLyFMw+MYhiAeV0SjCin3JI1JRgrE4/F9TppoDqSU9TKFJaO5olFFPL6nXkJ438ViXn2Tf+8LIUidXzzunW9yu5cjd+9z3xeuu+c3tn1g18UwxF4hd7btlbGnrL3vTV2S9U2eC3WuE4BpJsPs9mzbF3XPvW5oIIn6Jut3IOcopWj0nsjEaxuNKhxHpa79vlBqz/2Nx+vHfNe9ZvuZuQ2Ja2YYYq8cHMltkYjCdfc/tTx5faJRRSzmnUfyeiVnU0Yi9e+J67rEYrFGwyKPNvVeEcPyUbVmHLf/5Hd8tbYCy9rP2f8HkRICAe/lqBuVJKVntQYCkJ6uUpMGhPD+XrZMMnasQXq6oolk+/Xw+/2kJ1YyqJud3zRNPvzwQwYOHMgll1zCjBkzEjOjBBs3xhg9ejv33VeCSiSIMQzBN98Eueii7YwatZUXX6wABIZhsGzZMq688kqGDBnCP//5z0azeDUHhmEwd+5cTj31VJ599lnAJRyGxx7bzejR2xg1ahuvvVaBlF6dx46t4YorCjnnnK3ce28poZBqUlRNUzB/foQrrtjOpZdu59xzt/D55zUYhsBx4I03qhg9ehvnnruVxx/fvc+XVErYvdvhiiu2c/HF27j00u28/HJVk8dOYhiweHGEkSO38NRTu/H7PXF9/vlKvvOdbVxxxXYuuWQbI0ZsZu7cMJa198uXfFbGjw9y5ZWFnHvuVu66axfV1S5SetOot2yJ8Z3vbOPuu0sazUeRRCQa1Q8+qObSS71zf+ihMmIx75m0LJgwoZYLL9zOJZds5623qhqtU10+/LCaSy7ZzoUXbuMPf9hFPK4wTUFZmcOdd+7kvPO28r3v7WDlykhK+BuSrNcjj5QxcuQWRo/exm9/W8Lu3Q7p6ZKpU0OMGrWN0aO3ceWVhcyaFWqyLBLluS784x/lnHbaFlatiuLzCaSE4uI4N9ywg9Gjt3HttYUUFtpNiqoQnsA/80w5F1+8jXPOSb4n3vO1YUOMH/ygkIsu2sZvf7uLaFRhmgZLlizhvPPO4y9/+UsqP3JdLMs6aitn7HkUhITaLXzx5qfsCKRhxxwOKbv0UUBKqK2F556zCAbhhBO8lQWk9GZazZrliebdd/t4910zlcXqnXdM/vY3i3ffNbn/fh8ffGDgOPUthiTJmzJu3Djuv/9+7rvvPj799NN639XW1nL22WczdepUzj77bJRyKCqK89BDpcRinpWWrNfu3Q7PPVfBk0+25csvu/DVV7VMnRpESpdBgwYxefJkrrnmGkKh0BGzUoUQvP3221xxxRX87//+L6ZpsHNnnO7dfXz9dReee649H3xQw8qVUSIRz0J4440OTJrUhfXrY3zxRS2yibVxlIJQyOWxx9oyfXpXHn64DU8+WU55uUMw6GLbivHjO/Ppp52YODHI9On7fkkrKx3y8gw++aQTU6d25ec/z9vL+qmLaQqWLIny1FPlWJY3247ES3rHHXlMndqVb77pyhNPtGPIkDQ6d7aatDDDYUUo5PDcc+2ZNq0rFRUuH3xQjWUJtm2zefDBMqQUqfvbFEJ416SmRjF2bCe++qozixZF+PLLID6fYOHCCE8/XcFDD7Vm+vSu3HhjHvF44wUK4dUrGHR5993j+PLLzmzebDN2bA2WBe+9V02bNiYLF3bnpz/N5bnnKqiudhoV+6Rw1da6PPxwG2bO7MbTT7ejdWsDx1Fs2xbn4oszmTKlK1991Zkzz0xv0npOvjsvv1zJ5MlBsrJkyno2DMHzz1cwYkQ6s2Z1Y/ToLJ56qrzJcyRx3zMyDCZN6sK//30c775bzeLFEZRSPPdcBVdckc3s2d0wTcGLL1YihMOIEafw9ttvs2zZMrZu3VpvEo1pmixevJixY8fW60UeKRJHFpiWzbwPX2Nn59GM6OgSP/LHPmRUItN/x46KL780+fJLA8PwhKukBH75Sx/Tphl07ap45x2Tf//bywvQti1IqcjOhq5dFa1aNS6mSZRS1NTU0LVrV7p06cLLL7/MokWLUjcsKazxeDyR48B7sX/721Z8//vZqXKkFGzfHictTdCrl4/sbMnAgQFmzAglrAUvrWDdWVv7wptu69T77O9hSWbnMgyDrKysRBmK7t0tfvjDbCxLkJdnkJEhCQYVGRmS66/PpW1bk7Q0QUGBQSjU9DEcR3HeeRn07Rugutph2bIoffr4SUsT5ORIbr01D79fkJNjpF66phACKiu9YzkOBIOeObuvS+O6irw8g/vvb8V556XXa5Qcx+u+x2IuM2aE6NbNonNnC8fZuw5KQSAg+OEPc+na1cKyoE0bg1DI67L6/YK77srnmmuyG/19XVwXMjMlP/tZLllZksxMSU6Od+6GIZg0KcR552Vw2mlpVFfvw2RP1Cs9XfDTn+ZRUGAQCAhatzYIBr3lhZYvj9K3rw8QnHJKGq4LmzbFG220PHF2CYVcLEsQCnllyITboKbGSTUGSXFsCpXIGjdsWBp/+Usb2rSRKSOiutph7doYAwd6PbuLL85k69YYJSWNC71S0Latyc9+loeUkJ9vkJ7uNY41NS7FxTannZYGKE49NZ1588IEgwqlXHw+H4FAACllvR6eZVlMmzaNf/3rX0clUZEEMPx+qhZ8ynvF3fjxFQPwx9yDnsN/NPEeerj0Uofhw10sa4+l4Lpw3HGKW26Jc8stNiNGuCxd6t29c85xOP10l+HDXW680eass7wb25iVoZTCNE2uuuoqTjrpJE444QQyMjLYuHFjkzdFKSgoMBg0KFCvFZYStm+Ppyws14WuXS22b48Tj+/7gW2IFIIdO0sZ8+GXvPHBF7zxwRe89t7nLFq+ruGuKUQiC9fEiROxLIsTTjghldIw6ZMyTfjmmyBt25r07u3DcRSRiItpCpYti1Jb6zJs2L67Ta4L48bVcMEF29iyJc7PfpZLILDHh+bzCebN82aaDR4c2KcgpaUJCgvjXH11IWefvZUPPqjGTUxfbgzXhS5dTPr29TWamNy7BzbffBPiwgszm7zvJO5jJOJ18deti7Fzp82pp6ahFLRpYzJoUNo+ray6eGV55754cYRg0OWUUwJEo54luGlTjMsu287ZZ2/lnXeqGv68Hkp5QmhZsHJllOJim7POygBgyJAAkyeHmD49yLvvVjN/frjJa6USDb+UggceKOWss7by2996bg0hID/f5NNPa7noIq/LP39+pMluOgmBHj48QFaWTLlyXBfS0yWDBgX4/PMgM2eGeOmlCjZvtpvsFZLym7v4fIJp0zyL98QTfZSUOFRUePfEE16vga+pcQGFz+cjOzubGTNmpJLCi8QacjfeeCNvvvkmlmUdsd5fEimkiarZwoSZGzhn1KV0aBVAGAY+vx+zqbNuIUSjXle+Lq4raN9ekZ/vXXjD8D4qMVARi3mfaNT7NIWUksrKSp588kn+8pe/8PLLL7NmzZr9zsl3Xc+hX/fSKQUZGbJeqxwKKdLSZJMPVlMoID0tQNfO7ejWuT3dOrene+cO5OfusYgbYhgGW7duZcyYMWRnZ9OjR496OWL9fsFnn9XyxRc13HlnPvn5Bq7r+QvXro3y2GO7+dGPchgwwN9k14/EQMZll2Uya1Y3Lrwwgz/8oYTiYhspwbIEc+aEeeaZCn7/+1a0bWs2KWiOAwMG+Jk2rSvffNOFZ55pzwsvVLBuXaxRiyuJ4zS9FplpCr7+upa8PMnJJ/v3K4iGAdu2xfnzn3dzxRVZDB+ehm17Az6x2L5/25Bko/TEE+Xcfns+3br5iMcV5eUOaWmCzz/vzMsvd+CNN6ooLIzvc0DJsgSrVkV59NHd3HFHPscf78O2Fdddl8uJJ/p55ZVKdu2y6d7dwrI8H3JDXBeysiRPP92OWbO6MmFCZ3btivP++9U4Dlx3XTazZ3dl5syujB6dyT/+UU5tbdP+c/Dew6TBUJc77iggO1vy4osVuK6gVSsj5dtuCu9eBRkzppr/+7/WZGV5YxM+357r4hkBXgY713XJzs7mvPPOY+7cuXzzzTep51slkuPn5OTUOcKRQ0oDyjYvZNKX0xk35q/c9b+PMn3pMt5/5hlm7ohgNOEz+08jxJ5cq4bhZbZKipNKdEOS/18XNzGIkPxtU1iWxbJly1i0aBHPP/88L7zwAqeeeuo+88A2hWc1m8Ri3oipzydYty5Gt25NP/T7wjQMsjMz9nyyMgn4m44ds22b4cOH89prr7F+/Xo+++yzVFrBpC/vn/8s5667WtGvnyeahuH5fe+7r5QLLsjk0kuzGn1hkq4GpTzXhid4iuHDvSW3d+92ME3P5fHII2X84AfZnHaal06xLiqR+jBJ3fvXr5+P7t0tqqu9rigJq7vhb5pCSs83N2FCkO99Lzvx2z3fi0Rynbr719S43HdfKcOHp3HNNdmNnntjJMtK1ktKKCuz+eMfSxk9OpNRozJRymvEjj/ex8knBzBNQZs2nmiEww0b4z0VNU1BSYnNI4+UccEFGamyXNd7nu+8sxWvvnocI0akk5Fh0LGjWS/JUd2yvN95I/v5+QbDh6cRDLqJbd71kdJzH6SlCWKx+hdgfy4mEsfw+QQPPNCG117rROfOFp06mbRq5TXYSeqWlWwwnnqqnNtuy+PEEwMoBXl5Bjk5njvKMLzeS1aWJCfHQAiDiooK3njjDW6++WZuv/12fD5f6nw999bBv7eHgnRsm5we5/LIyy/zwG9v546fXkPfzp0444orObGN77CyTh0phIDdu+GbbyQbNgjWrBHMnCmprPQuXiTi3UwhvJYzaYk6Dhx/vGLKFMmXX0rWrNm3mKWlpbF7926+/vprPv74Y2bMmLHf7P9JvHAUz6/quorOnS1atzZ5+eVK3n+/miVLIpx7bkaTFlVTKKXIyc5k+KD+jBg8gBGDB3DqkAF06ti24a71sG2beDxO69atU74kyxIsXRrhxhuLOf10b+Bh0qQgpaUOlZUuN9xQjN8v6NXLYvLkIKtXexdSCIFt29xxxx28+uqrBAI+IhHFp5/WMGFCkFmzPEu0VSuDHj18FBfb/PCHO+jc2UfbtgaTJwfZuNEbNTIMg9raWm688UY+/fRTTNNESli0KMJXX9UyY0aYZ5+tIBRS9O7tib3P52PWrFlceeWVlJeX7+WCSYbcJDFNwZQpIZSC4cPT6rkaTNNk4sSJXH311dTW1mJZXlfyZz/bSW2ty8kn+5kyJcSKFdF6z4r3XNV/eCzL4quvvuKGG26goqICn8+kstLluuuKyM426NbNu45r13rrqZ1/fgZjxlQxblwNzz5bSX6+pHNnKyGQft566y1+/vOfE4vFkFJQU+Pwk58UISX06uVn0iSvLIBgUDFzZpAPP6zkqafK+e53sxI9DS+S5N577+Wxxx7DsiykhF27bD77rJaZM8O8/34106aFGDIkDduGadOCTJoUZPLkIM8/X8Hxx/vIyTFQyrtff/rTn3j44YcxTbPetXddb+AsqRlCeP7YWbOCvP56BW++WcWPf5yTcDdIHMfhN7/5Dc8//zymaWIYgs2bY1x33Q4GDgwQCMCUKUG2bo2TnS0ZNiyNl16qYOLEWsaOreH88zNS1q7jOOTn55OTk5NaFFMIgWmaPPLIIzz44IN75T0+EkgUGGYaea1b07ZtO9p16cXZF1zE0L7HERBeF7OlISUUFkrefNOkTRuvRX/3XZPiYkG7dnDBBS5pad4o+5AhLmed5fmG4nHPjzp0qMuYMSYzZ3otZWPd7mg0ypAhQ7jhhhsYN24cy5cv59577+Wkk06q16KapkkgEKjnCHccGDQojXPOyUj5fAIBwR/+0Irt2+N8/nkNf/hDK0480fMjSimxLKveqrL7QilFPG4Tq/NxnAOxGLy8sNFoFCm9wYNwWDFyZBqFhXFeeaWSN9+sZNOmGMGgy6BBAdLSBG+8UcUbb1Qxc6Y3iCaEYNeuXRQXFzNs2DBcFzIyBI6j+OCDal58sZJQyOUvf2lDdrakosLh1FPTicVcXnutijffrGLRoghSgmFI1q9fD8DAgQNTdU1LE3z4YQ2vv15JUZHN44+3JTdXpiybBQsW0L9/fwoKCupZXo4DZ5yRzogRaSl/nuN4jdptt+WRleWddxKlFDNnzuTUU08lJycH13WprVX06+ejVSuTMWO8c586NQgJkXBdxYkn+jn//AxEnXhj27ZZsmQJffr0oXXr1ijlUlnpMHRoAMuC11/3zn3OnDCuqzj99HR+97sCPvigmspKh4cfbkNamicQ4XCY5cuXM3jw4FSC9Opql379AqSnS15/vZLXX69kzhzPV1pV5TB2bA2ffVbL/fe34rLLsohGvWervLyc9evXM3LkyNSzm5YmWbo0yssvV/DVV7X88pcFnHFGOoYB5eUOb79dxauvVjJggJ/bby9IdPcFNTU1rF69mtNOOy3xDHkn77qKrCzJFVdk0a6dmfKTlpc7vPVWFdOnB3n00TaceWZGwiUmKCoqoqysjOHDhyOEF29aWely1lkZlJXZvPJKFWPGVLFqVRQh4KabcunQweT116sYPTqL738/OxE65Ql7TU1NPUtUJDK9bdu2jZEjR+7V8B4J9s42JbzRYNeOYu9j0OA/jWmCz1e/frGYNwDi83lWqVJerJ8Qnt+UxAuRjE11HLFPPyqJONRkQmnqLJ9tmiZvvPEG//d//8dJJ53Er3/9a0aOHJmyYC3Li8Ora8VICYGA54iy7WTgssHSpUt5+OGHWb58OT/60Y+4++67j0gXxTAMFixYwF133cU111zDzTffjN9v7jXTLBbzutJ+f32nmesqIhHvZaiqqmLTpk0MHDgw9aD6fMkuv0c06i3GaJoCv7/+w+w4ySB/yc6dOykvL6dPnz6J7rjnH6vvM3NTYiqEYNWqVeTn59OuXbu9uv3JY9W99smyGvN/Llu2jM6dO5OXl4dSnq8weZ+SKKUIh/f8trH7q5RizZo1tGrVinbt2uE4TsIdVd9X7rre+STLScaeRqPeaLsQgng8zrp162jfvj0FBQW4rjcg07BeyetoGKTuVzzuBeqTuFbBYJD169enVrPYc46CZGxk8nmkwX10E4NEyUsciURYuXIlAwcO3CteWgivIYzWmQxgGHvufSy2Z/JC8hnaunUr/fr1w0wki29436lzjsnyIdnoeKtiLF68mD/84Q+cffbZ3H777alE8cnruHHjRrp27droQpvNzd6CqjlgotEolZWVRKNRWrVqlbIkDpZIJEJpaSmmaZKbm3tEg5CllJSUlCClJD8/v+HXB0wyPKU5ZncZhoFhGKkVDw6E5IhtczQ8ycUeD9Sdsy8sy8J13WYpy+fzYdv2Afkr94VILNcTi8UO+141d1mWZR32MxQOhykvL6dt27aeMdjgelmWhW3bh3WMA0UL6mEgEiueknCsH+oNa65yDpS6x9JojnWS78/ReHf2hxZUjUajaSb2EVmm0Wg0moNBC6pGo9E0E8e8oCZnQh1JkgMwzRV24cVaHvOXXqPRNCDxViuEYRFI89LUpacHsPYx/a2lIAQUFwtKSw8svyYJAW4YJrQvkmEnmzdvxrbtZhHVbdu2NRqQrtFojm28cF3DR7h4JePeep7n//U8zz37LksKqxBGy7WihPDE8ZFHLF566cASTAsBu3YJli8/8Dn0hmGwaNEibrnlFioqKg5rtoVIJMD9/e9/zwcffHBYZWk0mpaHCAaDygz4WTf2Lzw7O8bI0wbjc330Hj6IHm2yUAcwA+c/hW3DmjWS9HTo0WNP8LGUyZRtnjVqGF6AshAwbpzB1q2C226zUWrf8/lJBGuXlpaydetWBg4cmAoaPhSSsY4rVqygdevWdO7c+ZDLknUy7yfT8jVH7KNGozl0JAiEiBMKu3Q++Vy++91LuPKqUfRqwWJqGFBZKfj1ry2uv97HjBky5UvdsEHwv//r4447fJx/vp8bbvCzdauXDPiPf7T43//18cILFhde6Ofxxy1s2xPaxjAMgzFjxnD55Zfz7LPPEg6HD9n36TgODz30EJdccgm33XYbS5cuPSQL1TAM1q1bxy9/+Ut+/etfc95553HDDTewY8cODMPA5/MxefJkLr74YiorK7VbQaM5ikgQSBGhvCLMxmlf8sqLLzLm8zlUxQxaao/fcSAvT/HCC3EuvtilstITDZFYimHyZINzz3WYNy9Khw6Kl1828fvhkUfi3H57nFtvtZk+Pcrdd8cxzT1zsRviOA433XQT//jHP6itrT2sWTmGYfDQQw8xbdo0Lr30Umpraw/ZOo3FYkyZMoXLLruMOXPmkJeXx5tvvolIZDrq0KEDF1xwwQHnBtBoNM2DBEU8ajHgwqu48uIhdCzws37Sqzz29hyirtlSV0GBRJdfJbJKJYnFBIMHO4wc6SVE6djRW3fKcbx9Xdf7xOPetv2RnEYopTxsa8913dQUuMMpy3Echg8fzimnnAJA586dCYfDKZfCgAED+P3vf09GRsYhi7ZGozl4JChcR9Km24mMuvRSLv3u9fz22jMp2raC6sie/JPHEqbpiWxSQOuiEkmnm+O8hBB7ZZo6VKSUpKWlHZBLQSTSkpHw8ToNlnYQiQQjGo3m6CIRAhGNUl1VRURKQLGjsBDTn41lGi0yfR8JP6rf72WWSn6SLknVYBnhJEpBWhqUlnr772/VU5FIBJGWloZhGPVWPhWJTDaffvrpIftDk8jE6gDvvPMOxcXFBySqqonkyqZpsmLFCj788EPiDZcz0Gg0RxQJAp8RYdFnL/HbX97Br391C09Mq+GqSy8gx19/re6WgmHA3LmSyy7z8+GHkhdeMLj2Wh9LlwpMs+kK2zacfbbDlCkGo0b5eewxs8lBKSklVVVV/Pa3v+XOO+9k7ty5XH311TzzzDMYhpH6/h//+Adbtmw5KCu1oQVpWRZr1qzh2WefJRQKHbI7QAgvmfBHH33EF198cVgir9FoDh4RDAaVEIpwTSWV1WFcwJ9dQOucDJRjt0gLVQgIhbyYUp9vT9e+dWuFZUEoJMjM9HI+BoPe9xneWmZICaWlgpoab1urVk0vkue6LiUlJcRiMXw+H9FolMzMTFq1aoWUkhUrVvD+++/zm9/8hszMzH1mbzJNMzVIdPvttzNw4ECuu+46HMfBsizGjh3Lrl27uPnmm/cS3IbYtk04HCYzMxMhRGrp6czMTACeeeYZRowYwZAhQ3QolUZzFEllmxKibrC7QrmqRYppEiE8cayL63riKeUe36kQe0b/k9R1DexDAyFhqda1GJVSKeFMWoSO4+xTAA3DYOPGjXz++efs3LmTVatW8eCDDzJw4MCU4EkpU7GlB0IyXVny/6mTjs80TVzX3afAazSa5ken7zsKSCkpLCxk2rRpRKNRhg4dyoknnnjA4qnRaI4NtKAeJQzDSA1o2bZ9UNnpNRrNsYEWVI1Go2km9h+fo9FoNJoDQguqRqPRNBNaUDUajaaZqCOoAkNKlOulhHNc7VrVaDSagyExKCWxpMPWKc/zh7eWkSGzOOsnv+R7p3ZHttDgfo1Go2lpiGAwpAy/pHTGmzz49nJG3/5nRvfyEbdttJGq0Wg0B45ECHyqklkzttD/gp8wqrdFOGYjGk5D0mg0Gs0+EcFwVKWFNvPMU69R6vNRXrSNXdX5XH7zLXx3RFdcW88F12g0mgNBAriOS7RqA+WtR/H4M6/y1E/78Ml7n1NU4yCbyhyi0Wg0mnpIlMLIyKAg/ySG9m6DAbRu25YsFaFaZyrSaDSaA0aiXGL+NgwdlM/UsR+yYOl83vroG3zt+9Ipw0/Lzjml0Wg0LYdE2JTA9CtWffYWH89ZR7TtIH5y9SV0yzeIO1pQNRqN5kColxzF9AfwGRKUQzQapYWuIq3RaDQtEp1tSqPRaJoJHWyq0Wg0zYQWVI1Go2kmtKBqNBpNM6EFVaPRaJoJLagajUbTTHij/EJi+fxYRt1ppg7RcJT/9jBUISAQ8JbYjscV8fh/+QXRaDRNIoKhsJLRShbPmsSKoiim4S1477faM2L0qbSzJPtYcv5bjRAQjSrefbeK3bsdRo3KZOBAP3r1Z41G0xgSQAmJL5BBRmYGmdl5pFWs4M3xswnHBIKWmRxFCIFhGLiui+u6GIaBaMZELkJ4n6efrmDJkihSCv72t91s2hTHMPbsJ6Vs1uNqNJpjF4lyUb4sTjzjUn5w9dV878rv0DE3g5NHnE7HTD+qBZqnUko++eQT7rrrLm688UbOOussHnvsMRzH2ae4WaaJ32elPj7LbLK5MAxBcbHNqlVR7rwznz/8oTXHHWfy4Yc1KTEvLy/ne9/7HhMmTMDn8zUsQqPR/JfhDUopRTwWIRKLESlayvQ1NqecNpAMo2UufyKlZOfOncyZM4e//e1vvPfee0ydOpXZs2c3KmxCCGzHYcGyNUz4Zi5fTZ3Hl9/MZfq8pURisUZFWErYscNGCEVWlgQUffv6Wb8+im0rlFL4fD5OP/102rdvj+vqeboazX879Ub5TeGwbsYkCn3dOblPHo7dMkVCKYVlWVx00UV06dKFjIwM2rZtS3V1dZMWtQAs08DvM/H5THw+C59pNunSkBJqax2CQRchwHUVeXkmwaAiFlMo5ZKVlcXvfvc7Bg0ahK0dqxrNfz31Vj11I1XMnL+MHqeeRSef3aJH+A3DwLIslPKsRdd1kftYtsVxXbYWFrN8zSZWrt3MyrWbWLdpO7EmhNB1oaDAJCfHwHVBSkFhYYxWrQzS0ryBuqRl25SIazSa/y5SCiQMHzVrxzO/4kRGn96ZWLRlJ5dOCumBiJlSCp9lcfG5p3Hrj67gp9dexi3XXc41l59PZnpao2U4jqJzZ4tIRLFtWxzXVSxYEKFfP39iwEpQVVXFhx9+SFFREUbdkSqNRvNfSUJQJYZZzjfjZtLh7Ivp4rex99aYFkVdMT1Qca273/72dxzIzZVcfXU2999fyvnnb8Nx4JJLsnBdhWEYrF+/nieeeIJgMLhP61ij0fx3kErfJ4RD9e4qzOwC0s2Wn6c/FArhup4f03EcqqurSUtLIxAI7FMoDxYpYdu2OOGwokMHk+xsieN4LocZM2awfPlybrvtNlzXbdbjajSaY496+VCllKBc3GNAF4QQCCFSo+vJmNTmFjUhPP9pcmCq7mC+lBIppR6Q0mg00FBQNRqNRnPoaMefRqPRNBNaUDUajaaZ0IKq0Wg0zYQWVI1Go2kmtKBqNBpNM7FnppSUSJGYRikkhmx8jrtGo9FoGkcEg0ElDAOnbAlPP/Y6a3dXUZPRk5tv/hnnDMjHdlpmghSNRqNpaUiQ+K1aJr39LtvbjuaZN8bwh5Hw3keTqIwZNJLZTqPRaDSNIEHhuj5ycrLp0C4DhYvjZnN817ZYJrT4OagajUbTQvBmShkWMryFd//+D6asKSWj62ncdtfN9M4Rusuv0Wg0B4hECHxEWPDReyzIO5N/PP8ko/J38P7Xc4ioptIvazQajaYhEmEiqjbzzYJihp1yCtl57bj8mjMpWriYwup4o8uDaDQajWZvJMqBrDYM6J7DxkULWbF+LV98vRDbl02e36DlJ/LTaDSaloHnQ5UW/pp1vPbWh6wprIJ2J3HTD6+gR4FBvCWvg6LRaDQtiD3p+4SB3+/HkIByiEaj6PEojUajOXB0PlSNRqNpJvRcfo1Go2kmtKBqNBpNM6EFVaPRaJoJLagajUbTTGhBTSClxJDGUZ/IIBAYUtKcc9KEEN4KthqN5qhSZ5RfYvl9mIZE2XGisRiqGV/yI4mUElMaxO14vWkIAjBNE8dxcVXjMWACsF2H0poKHNclLz2LDH/aUZvO4Lgu1eEg2WnpGNJo+PUhEXdsaiMhctKzkM3QQJjSwDAMYnY8tUy3ZZgY0pv4UXf7wWIYBpY0AXCVS8yOp76zTBOBqLdNo2nJJMwYic8IsmTyOF5/+WU+m72SCAGOhRzTQggqaquZv2klUXvPVFmBwHYdFm9Zzc6qMqRo3GITQhKOR5m6ZiGPjHuFcYumIptJ2PaHFJJdVbt5Yvwb7Kzc3WQdDwZDGmwu3cEj416mJhw8bIvbkAaby4qYuGIO4VgUIQSWYbJqxyY+nD+Rb1bNx3GcQzqOFJKtpUV8vGAyHy2YxOz1S1PlKKWYu2EFi7asRiT+02haOhIEZsBlzaS3eefL9Zg+l4WfvMO4uVtQhmc5tGSkkCzeuoaZ6xZj1OnmSikoqa7gs8XTCcUiTVpqrnLJCmRww8hLOa3XwIZf1xM5KUTqhZdiz0suhUiVL4TXhU/+//663sn9ZaL1qnsMEhZ0kvp1kY2ek6tcOuS25vrTR5PuD6QsRyHEQQu2FJItpTv4cN7XRONxZKKuG3Zt54N5E1HA7A3Lmbhq3kELXtLyHL9kRuL+SD5dPI3paxdhGp7rxVUu45fMYHnh+v1eR42mJWDcc9/9D/hrt/LuB9Pp8p2fcP0lZzM4r5RXJm1g6MkDyLBabkpUAYRjUT5dNJWLTjqddrmtcF2vay+FZNraRaRbfs7sOwTHdRr+vB6u67J4yxoMKTmxcy9QCiklywvX88zX/+br5bMprCihd/uuBCwfm0p28M+J7/DV8tms3LGJXu26kubz8/bML5i7cTmfLZnGF0tnkhlIo3Or9o12iYUQ1EaDzF6/nM2lRXy2ZBqz1y+lX8fuZAcyKCwv4e8TxjBl1XwmrpyHz7To3uY4qsO1/Hvul2zbvZP353zF7PVLOS6/Da2z8/lm9QJenfYx28t3MaRbf3yWhRSSqlAtb878jI/mT+ab1fPZvnsXvTt0w2eajd5fkXCFvDnzMwZ0PJ7RJ58BwhP8r5bPol1OAdecehF5GZl8tmgaJ3XuTZo/0LCYfSKEoHf7LpzaayB9O/dgY/E2SqrLGdS1Lwjo3uY4LMNi/JLpDOzcC7/la1iERtOikACOq7CDQWzbE6OYY1OzcRcVtt3ARmpZGIbJ6qLN+AyLbq074jieaAogGA2xdsdmBnXrd0irDhjSoLiilI8XTOG6077Dn77/K0+8F39DVbiW9+Z9xQUnjOCRq++gbXYBb80aj5PwxW7fvYt7LvspPzp9NB8v/IZdVbsbtSY9BNXRIL3ad+Ev19xJl1Yd+WDuROKOTX5mNrdf8EP+et1d/OTMy5i1fimVwWoMabBs+3p2VpXxv5feyO8vvYmurTsSd2zO6juUG8+6nOpwCDvRiEgpmLluCdF4jEeuuYNHrr6D60deQsDy4TYi9ABSGmzbvZOacIhTjj+BqB0DIGbHKQ9Wk5+ZQywepSAzDykEJTXlB93tF0KQGchgyqoFvDl1HI5yGT3oDEChlCIai3Fylz5YhsWCzaswDtLC1miONhLXwcnqzFWjh7Bs7N+483cP8PzYOdQKdx8i8J9HCEEkHmH6mkUM7NoLv+lLWVqmYTJnw3KEkBzfvgt2QmgPBiklG0sK8RkmnQvaEbB8nNbrZDbs3M6aoi1EYjF6te+KFIIRvU5kV1UZZTVVmIbBkO798Jkmx7frTLY/nS2lRU12WZVS5AYyObHT8SilGNKtL2U1FVSHa8kMpLNs2zr+PPZfvDfnK0LRCHHHRilF66w8zu47lHTfnm79nkL3uB0AlILe7btQGarhb5+9ysrCjVjGvv3EhvS6+z7TJM3yo5Q3RBl3HEKxiCfECtIsH1JIz7/asJADQOEigHRfGlJItu/ehUgIp0JhmSZdW3dgw67tuI3a0hpNy0GCwrElHU65nN/9+lfcesuNXHxKd7LaZpNrtNw1UExpsLFkB7brMLBT79QovhCCcCzKiu0bOL33yYds1SgFjuMgE6FUSnkvt6tc4k4chMIQEpWoC4iUW8FvWpDwhxpSErftffoYkyFbJBoDV3nS8eH8Saws3MT3h1/ARQNPI93ndXkVyttfiCYtzLo4rkPPdp351fk/YHC3fjw/+QPem/s1rnL3aVXaroOUMtUYqMS5ZQcyEQlfb200jOO6ZKdnkqyK37SwGvG/m9LAb1mpYwohMKXJ6b1P5rtDz+H4dp2ZtmYRsTqDi6AwDRPHcfZuODSaFkZCbRxsI42O3XrTp5Nk/uw19O1/CjkZZuolaUmIhHgt3bKWvh26k5uRlXrZTGmwascmEDDguB5NhkvVxZCSgC+AaRiYhoHf50cKwXEFbamNhKgK1WKZJsu2rqNdTiu6tzkOgaC4sgyfz8fqHZvJ8KdRkJmDUooVhRuwDJPSmkoqQjV0atUOp4l6CAFVoRo2l+7A8vtYt2srWYEMsgIZbCsr5vh2nTj+uK7EHJuqcKi+ADZyc/yWRcDyIaUkYPnwGRZKKYKRMPlZuVw4aCQ/O+dKNuzcRm0k3KTQu8qlY14bovEYkbhnfSqlsAyTtjn5bC3dgWVaFO7eiatc2mblo1A4rsusDctYXbS5XnkCwebSHUxbs5hILIoUktpIiJpI0IvDFYKymgoMKT3rOnFqjuNSWL6T4wraNltYmUZzpDDuueeeB6QZoHrNFF587p+8/sl0Iu3P45ZrRpBpqsbe2f84Ukp2VJQyf9MKzuw7mNx0T1CFEMQdmymr59OloD19O3bbrwVnSIPVRZsZM+Mzlm5dS2H5LtYUbaZVVi7dWnfENAw+WTSVqavnE4yFuXLoeXTMb0N2WiafLp7KzLWL2VpWxPeGjaJtbgHzN62kpKqCxVvXMnnVPIZ278+wHgMaNfSFEFRHgizesoaacJCpqxawumgzVw47j455bYjEY3y2eBortm1gV9VuTENyUpfemNJg/qaV9OnQjdZZuSlLM2bHeWf2BCatnMvW0mLW79xGbTRM19YdmLl+Cf+e8yVz1i1lyZa1DOzSm/7H9WhCTr3qZgXSWbBpJbnp2V6j4LqAom12PjPXL2XqqgUs3LyaUSeOoHf7LqiEj/Vv41+nJhJicNe+KetWCslXK2bz3pwvGdlnELnpWZTWlDNm5nimr1nI9DWL2FFRwvdPGUVBZg6uUliGQXFVGbPXL2X0yWeQ4U9rWE2NpkXhBfYLiRMqZ+euMiIyg3YdjyPX57bo5NIxxyYSi5KdllFvu1KKmkiINJ8fn+lZZ/tCCEEwGqa8tirRdfe6uq2ycknzeaPWOyvLiNlx8jNzyE7LwHFdDGmwq6qMUCxKTlomBVk5xB2HZ79+l26tO3Jy174J8SnAMIwm6+G4LsFoGKUUVeFaMv1ptMrOS0UrlFTvJhqPk5OehSklAcuPEIKaSJB0XxqWYaS02lWK0upybMfBMkyidpzMQBp5GdnURsNUBqs9v6Q0aZOT7wXmN1EvEg3Xgk2rmLJ6Ht8dci5dW3VAJNwY1eEg5bVV+C0fbbPzISHCSikqQzVYhklmIL1eeaFYhEgsSm5GFoYwcJRDWU0lUTsOKLID3nW0HcfrAVSVMnbBZPq278a5A4anrolG01Kpk2B6z0CGch3cpt+zFoMUstEuvRQSpdQBL98iEKk40CSu6/2+7ndKqXoWb+p6Ke9Irqv4+4Q36dexO5cOOhPHdVPlNIVAIKSAhIVNQmST1D0GeLGZpM5x72EaKWS9qIZknRvGt+6vXkkMaTBv43JWFm7kymHnkRVIT5TnHUcpzz1QFy/etf618rZ7ddhzfgKjznWvW5arFOOXzEAIuGjgafsVf42mJaATTDcza4o2k52eSce8Nt8aATCliWHIw5pieij4EoN7euqp5lhBC2ozY5kmruvWszI1Gs1/B4cWU6RpkrhtazHVaP5L0YKq0Wg0zYQWVI1Go2kmjnlBNU1IT1ekpyvMvSfnNAtSSgKBQP2g+hbMsVZfIQSBQABjP9NhNZqWzh5BFXumGApptOh5/ElMExYulFx3nZ9rrvEzc6ZxWKJqGMZec+4Nw2D9+vX87W9/o6amZq/vmwMpvQQmQoBheP8eKoZhsG3bNv70pz9RW1t7REVVSjDNw6uvlJJQKMSTTz7JsmXLmkVUjUT6v4ZIKZulfI2mKWSazwBhIt2tvPXQ3fz8phv47V9eYUOVhWns/VC2FAIBiMXgqacszj/f4cEH4/Tv72DbYBiQlgbp6ZCY/g542y3L+6Sne2Uk3zvLsti8eTPXXHMN7777LjIxHdLv92PbNmvWrMG27UZf1MPBMGDnTpvrrivkzDO38rvf7cK299QLwO/3Yx5gS2FZ3mSGVatWYdt2w6/3S2rq536wLMGWLXEuuWQ748fXYpp7Kuz3+7EsL+RpfxiGgd/vZ+PGjVRUVOx1fRtr5GhEHA3DoKKigttuu40nnngC0SDuVkrJunXrOOOMM3j44YeJx+ONlqvRHA5SCInPF2XemPfY0OE8nn3zVS5vVcSr740n5JpNTk38TyIEzJoleewxiyVLBKtXS+bOlcRiAr8fysoEL79s8PjjJnPnSnw+T7gKCwXr1wsWLpQ89pjJe+8ZxGKedVhWVsbdd9/NjTfeyPXXX4/retM5p02bxtSpU7nqqqtIT09v9tk6jgNPP13ByJEZTJvWFdeFF1+sTFh+Asdx+Prrr1m7du1eYtMQIQRz585l/PjxfP/73ycjI+Og4kYDAT8luyvYsbO04Vf1EALCYZc336xi7doo8fieY7iuy9SpU1m2bNl+BUsIQVFREa+++ipDhgyhb9++e13f7Tt2UlFVXV8chaCisoZthTtTUxMcx6GgoIC//e1vrFixgo8++qie4JqmyRtvvMGQIUO47777sCxrr2NpNIeLRAjMUAmrd0H/gb3xmRkMGtqbkrUrKAnG6j3IQogmLYajjet6HyEgHodYzKtnOAzPPWeyaJFBNAp/+5vFtGkGfj+sWSO46SY/H31kpGb5APh8Pr788ks6duzIqFGjiMW83J8kLJvVq1fz6KOPUlNT06xdRiEgGHTZujXOOeek4/PBWWelM3NmkGDQxTAk8Xicxx57jIkTJx7QsaWUbN68mQcffJCampoDEmEpJbbt8PEXU/l84ixiiez8TWGagq++ClJZ6XDqqekkDeFkA/DPf/6Tjz76CNM0D+j4wWCQxx9/nCVLlqTOUSaetcUr1lG0q8zL4p+4ZqZlUrSzlIXL1iDFnplsruuSl5fHzTffzJgxYygtLU11/03TxDAM8vPzD9ja12gOFomUxGtrKauuwDB9KAW5rduQWV7O1lgs4dczKC0t5U9/+hP33Xcf99xzDzNnzsRXtz99FFEKRo50+fnPbbp2Vdx4o8PNN9u0a6eYM0eybJnk/vvj3H13nAsusHnrLYNw2OvqZ2crbr7Z5q67bK6+2sHvF0QiUSZPnsywYcPqNRau63L66adz4403kpubi0ik8WuMpG5Mm7OEF8Z8zEtvj+PFtz7hjQ++oHR3xV5TW0n4IHfvdigvdzBNgetC27Ym4bCiqsoFXPx+Py+99BI//OEPUwm0m0IpxbBhw7jlllsoKChosq4pBERjcWbOX8br748nJyuTyy86ky7Htd9r2mgS0/S6+mPHVvPzn+fj9wvcxDxlpRSmafLUU0/xi1/8gnh83zOrlFK0b9+eX/ziFwwYMCC1rxCCqtogRTtLCUejVFbVUFxSRiQWIxZ3KN61m8rqGiLRGEU7y6isDqbKtG2bgQMHkpaWxpw5c/D5fNTU1LB48WKi0WijVrBG01xIFAgp67Xajm3jWhZ+KSCRF7R9+/ZceeWVhMNhhg0bxsiRI+tZckebeBxCIa/LHApBNOpZrDt3CrKyFGlpChD06KHYvduzXB0HevdWFBQoIhGIREAISW1tLVVVVeTne0k+6hKLxQiFQg0370VSN9q3a0W/Xt3oe3xX+h7fld7dOxMI+BvN2qWU54us63+MxxVSei4KlZjf3759e7Kzs/cpTkni8TihUCj1230hhaSwaBcbtxTSs9txnNC3B21b5SXSnOyNEOA4irFjq7n44iz69PEjBAQCMjUYKISgbdu25OXlHVB9XdclFArV809LIVizfitfTZ3L5q1FLFq+lknTF1C2u4qa2iATp89j8Yp1bNlezFdT57Jmw5Z652tZFu3bt2fHjh0IIdi0aRMPP/wwmZmZDB06dL8Nk0ZzqEiUi5mVTZu0TCLhMIaAil1F1Obl0cnnT71atm1zwgkn8NOf/pTRo0e32FY+O1sRCgls23u5KioEaWmedUpCxOq+50opAoEAPp+P2traPV8kMAxvCeW63cZ94nrLd9T9NIVSkJcnycuThMMK0xQUFdlkZEhycgyU8gTqYDAMI9XV3l99Xdeld88uXHzuqQgE7382mc8mziAaq5vgeQ+mKdiwIcZ771UzZkwl115byJQpQZ5+upxZs8L1GoZ9nXddZKIxF4kuvmEYOK7LqUNP4KfXXc7A/sdzwdkjuOGa0XTq2JZW+Tn85JpLGHXWcE7o24OfXncZpw05oV7vwXVdKisrycnJwXVdBg0axPvvv8+OHTt45513dJdfc8SQKJe4vy2DTshi2dTprFq9hE8nzaN1r8Hkp9VPfxePx+nTp0+L8KGSEKRIxLNMk38PHqxo1Urx8ccGc+dKPvjA5PzzHbKyFLbtRQbUfddd1yUjI4Nhw4axZs2alJCIhD9w06ZNrFu3jpKSElauXElRUVGjYpOkb69unDdyKOeePoTzRg7ljBEnk53Z+OCQUpCRYXDyyWm8+WYlixaF+eCDakaOTCc9XSCEN3J9/fXXM2XKlP0Kgeu6bNq0ibVr11JWVsaKFSsoKipquFs94nGb1gV5nDdyCFdefBamYbBmw7aGuwFg24rjjrMYM6Yjf/5zG371q3yOP97H+edn0Lu3D9cVhEIhbrnlFj777LP9uoSEEOzcuZOVK1dSUlLC+vXr2bBhA7ZtY9sO0WgMn89bJTIajeEmsnfFol7PyO+ziEZjxO09FqeUkuLiYoqLixk+fHiiLO/Trl074vHGGwuNpjkw7rvnngdicWg3oA/munmMHT+Z2s7ncOvVoyjw23ul8WtJlqnjCGpqBEOGuGRne8KanQ0nnujy8ccmn35q8J3vOPzoRw5KCUIhgWlC//4udQ03pRRt2rThxRdfZODAgXTq1AnHcaitreW5555j9uzZFBQUMGfOHBzHYdCgQY0KJInr4zj1P/tCCBg40M+8eRHef7+GYcMC3HZbPo7jdV1XrlzJ/PnzufLKK8nJ8VYEaAwhBNFolOeee45p06bRrl07Zs2ahVKKE088cZ+NoFJepv20ND/dOnWgTau8hruksCxBQYFJ+/YmbduaRCKK4cPT6dHDQinB9u3b+eyzz/jhD39IXt6evK6NYZom48aN44033iA7O5tNmzaxYcMGBg8eTEZGBq7r0q1zBwry9qzIQCK1X0FeDt27dKxXnkws1/LSSy/Rq1cvLrzwwlT33jAMpk+fjm3bnH/++YcUUqbR7A9RGwyqhE2G5fdjGRLl2p5F0Pi722IQAvx+z+qs+95KCX6/QgiwbUHS1WsY3mSAaHTPvkksy+Krr77i+eef5yc/+QkXX3wxJCIA6oqR4zhEGyvgMPD8kF6YlGd1uyjlicCOHTuoqKigb9++DX+2FyIx46iuBXYk6ptECPD5BI7jWf9CCCorK9m4cSODBw9uUvzr4vf767kllFJEo9F9CnFjGIk41EcffZTa2loeffTRemFjhmGwePFifvOb3/Dd736Xm2++ORWzq9E0Fzp9Xx0Mw2DTpk2kpaXRtm3bFvGyJf2K/8kBwINBSollWUdMxJtCCEE8Hmfbtm20adOGnJycvQafpJRs2bIFIQTHHXec7vprmh0tqA0wE/lMD9ZC0rQM9nf/TNP0XBx6pF9zBNCCqtFoNM1E0yMVGo1GozkojklB1b4vjUbTEjnmBFUIQVVV1THpA5OJlWX3NU/+SCESc/YPBpGs70H+rqXirdR69K+95r+HOmFTABJ/wIdrx4jbjTv1WwKO4yAT6fWOFgKBaZi4roPTYNlkyzBx1f4X5qsIVhOJx8jwp5GVlo44irm8IvEYtuuQ4U87wKMKasJBaiJB0v0BstMyEstDHxkMKTENk7htp5aSNqSBZRgoIGbbqEaWDD8YaiMhTMMkYO2ZcGAaJlIIvbKqplmQVjJphzDw+YLMHf81SzeVI4wj9/IcDkIIIpHIUQ1pEoCjHJZtW8vOqvJ6Qi6EYOWOjWzbvWufAi+FZP6mlTw5YQzPfv1vovHYUbNUTWkwbc1CXp/2CbZzYDldpRSsKdrES1PG8si4l9ldW4Uhm57GejiYhklJdQWTVsylKuQlxZZSUlRZwqeLpzFxxRyi8egB1bsxBKBQPD/pfb5ePgczEfcqhGD1js3MWrfEC6rVaA4T6bMkCAPL3sm4fz3Kg39+mrGztiN9Xrq0lsihvliHiiENSqor+GjhFIKxUMqylEJSGwnz8YIplNVU7FMgXeVy+ZBz+N6wUfjM+gHlMrFaQrKLnTw/wZ6/vTR1XiPn7eetqpD6zX7ulhACkbAwjUR5NHIMI7GP67qc3vtkbjnnSjL8aXuVlfqNlCnL1TsH71yS9d3fvTKkpKy6gnfnTKC0pgIhBQJBRW0178yawO6aSlbt2MQnC79BKbWfs2wcBUgko08+k8Hd+tTrSQgUX6+Yw/Q1i7CMfU/t1Wj2h/HA/fc9oAzB5mkfMre8C4M6hqnJOYEzTmqPaqHd/uQUw/29rM2FEJIZaxeR7gswsteg1HbTMJi7cTmReJTzBpxyQF3iTaWFbC/fxdDu/fGZFlJKtpfv5J9fvs3EFXNYtm0d/Tr2JM3nJ2rHeXfOBN6eOZ5paxdTkJlDh7zWrCjcwLuzJjBv80rGzp/ElrIi+h/XA7MJQZBCsmHXdsprKxlx/EBWFm7kuUkf0Dorj3a5BXy8YApvzvyMKavmI6WgW5vjQClcBaW1lSzZuoahPQaQGfDcBZF4lJemfMQnC6cwfc1Cjstvi9/y8cXSGYxfMp0Fm1ZRWL6TMTM+p31uK9rl7DuV4McLJpNmBbj2tIvxGSZCwKItqympKufWc79P19YdGLfoG47Lb0vbnIKUS+BA8BrDcv415QNmrVtM+9zWdGnVIVWfdrmt6FTQjrHzJ9GjbSdyMw4sq5dG0xgSFHbU5rjTr+POmy6lfbrNgT+uRx9xlLv8Ugiqw7Up0TIMA4WXKi4ci7K2aAu923cjYPkOoU6CcCzCO7MncHrvQTxy9R20ySngzRmfYrsOU1bNpzxYzUPf+wU/PPUiPpg3kU0lO4jF4yzbvo4zeg/moat+TllNpSeG+xB0AWT401hXvIUP50/iyqHncnLXPszZsJzVxVv4/SU38ovzr2bKqvks2bq20YEogWcRf7Z4GoZh8PD3f8XoQWfy5ozP2FW1m1WFGxnSvT8IiNkOp/Y6icVb9iScaYgQgspgDVvKijil5wlewL1yEQi2le2kVbaXSjDDn0ZmIJ2dVWVNltUUjuvQOiuPOy74Ie1yWlEerKnXu4/ZcTrnt6Nr6/bMWr/Eu7eHZAdrNHVG+QXguk6TiYVbEgf7Uh0OQgiWb19PNB6jT/uuuK4XXSCFYP2ubZTVVNC3Y/dDEFOvu7u9vITqcJCBnXvhui4j+wyitLqCwt27WLVjI/06dCfdl0bPNp1ol1PAmqLNAHRr3ZHubTqS7k9jQKeebN1dTMxuPJOSAkzDYmflbt6f+zVXDj2Xk7r0JhKLsnrHJnq0OY7stEyOK2jL8e26sHzb+kbPRwhBVbiWjbsKOblLHwAGdu5NZiCdVTs20SY7n66tOtA2O5+2OXm0zsolFI3guG6jEiUQ7KwqI+bY5GZm7xnsE1AdCeIq5XXXhSDdFyAYjRzS8ynquCkac8tIKene+jh2VJQSjka0O1VzyOxthrRwlFL4/f5GheNI4LgOi7euZXC3/qT5AqkXWinF4i1r6NuxO62zcvc7wt8UtutlPTITo9mmNEBA1I7jOq7nb0UhpMA0DOKJLEmGYaYsUkuaOI7TqAiSEBSlFEUVJTiuy+bSIm9fAXHXxpRevleBwGeYxB270RTTQghcpXCUk/I3SiEwpUHMjnv5V6WBq1Tqs8/7JLzRe4n0fLeJgyoFrbJyPSFE4CiXmkiQ3PTMlCAa0sBv+vYq35ASv+VrVDibQiQGxhzXwUUltmg0B88xJ6hHs8tvSIN1O7cTjIQZ1qM/tuOJmRSCkuoKtpUVc1rvkw9ITIUQWD4fftPCkJKAz48hJW2zCzClZNvuYvwBP2uLt+A3fRyX34b2+W3YWFKIaZhUBmsoriyjS6v2CCEoqiylPFiFISWbSnfQOjsfyzSbSraP7dr069iDn55zJYu2rOabNQtIswJ0ym/P9vKdKOUSikXYVLqDbm06IoXEb1kETC/bVsDyYRoGmf50Wmfls37XNnx+PzurythdW0W3Nh0T16GJCjSGUrTNKQAUtZFgapkYhaJr6w4UVZQQd23Ka6uojYRpl9saV7lIIdi2u5iZ65cQjddZ/0tIdlbuZsbaRVSH9wweGoZJui+QCMMy8Vn+eoLrKpcdFSUUZOYSsPx4drFGc/AYD9x/7wNxx3uADFzWzfmKwrSTOGtQhxY5KCUSWYUOZAG4w0EkpOGLpTPp2roD/Tp2T1mnUkomr5xLVlo6Q7r326+4CyGoDNXw9szxzFy3hG1lxWzcVYjtOvTt0IOstHQ+XzyDBRtXsnrHJr43fBQd89rQIa81y7evZ+KKucxev4STuvbh9N4nsbNyN4u3rKG4opRvVi+gJhziiiHnkJ2W0WiXWErJ+p2ee+LsfkNpn9uKjxdMJjOQzrDu/Vm/azuTVs5j+pqFdMhrzUUDTyfmxPl4wTd8uXwWW0p3sKWsmN21VfTr0I0Oea2ZuW4Jc9YtZcbaxZzRdzD9O/Zg+fYNHN+2M1vKikj3BbAMi11VuxncrV/DKiUQBHw+1u3ciu249GrfJZXUJDc9k/U7t/HV8tnM3rCUwd36MqxHf8CLcPhy2UzemvE5Z/UbmopC8FkWM9cv5bmJ7zOke39aZ+cCsHTbOt6e9QWrCjdSWL6LTbsK6ZDXmqxABkIIQrEIX6+Yw8g+g+iY17rJxCoazf4Q4VBQJfOeChTBqnKiRhZ5Wf76qe1bEEcrsF8BlcFqMgPpe4XUVIVqCFh+/HWCxPdF3HHYWVmGQmFISdy2yUnPJD8zGykMiitKCUbDZKdn0jY7H9t1MKRBTSTIrqpyLMOgY34bLMNkzoblTFo5l+8PvwAJ5GVmk5eRvU9LORSLYDs22WmZSCEpqS7HZ5rkZ+QQikUorixDIGif14qA5SNu25RUVxCxY54bwI6T5g/QJjsf0zCpqK2irKYSv+WjY34bXNelNhIi3R8gHI9iCC+sK2rHyU7LaFidFKY0WFO8mQ/nT+ayQWfSq12XVChWKBZhZ+VuDCnokN8GUxqJ0ClBbTREKBohPzMHo044WTgaoToSIi8jK3XPqsNBdtdW4jP3LB3dJiefgOUnGAnz/ryv8Ft+fjjiooOKINBoGrJXtikhDQTeUhMtESEENTU1pKenNzoS3dxIIVAJH+SBbG8KIcReo/BKuXus3tS0SC97fpK60yWT3d1Z65fy9fI53HXx9WSnZ+I4dqOWaV1EImY1KShSSlRizau6dXOVmzon2SC+VSmVEpzG6iuFTNUxWRuRyLC/L3ymxZKta5mxbjFXDDmHNtn5KKX2Ove611omzqdhIyLw4l/r7t/YtXeVN1A2bc0iNpUUcs2pF+FvEB+s0RwsewnqsYBp7nsQ5tuMEILS6nJ2VJbSv0MPLMP8Vvj8kv7NmB0/qlailRjci9mxb8FV1PynOSYF9b8dKSSGYWDb9rdCTDWabwtHvs+saXZc5RK341pMNZoWhhZUjUajaSaOSUH9b/WfajSals0xJ6hCCMLh8FEVVCEgLQ3S0xVp9RMvNSuWZeH3+xtubrFIKUlLSzvi4WuNYRhGsx7b7/fj8x1YCJxG0xR75vILmcrObhgGyTSpLZGjES6VREoIh+HBBy2uvtrP44+b7CPcc78IIbzr2+AcLMti8uTJvPrqq80mEnURAkxTICUYhndeh4NpmmzdupW///3vlJeX73U+RxLTNFmzZg1PPvkk4XD4sK+XUooxY8YwceJETLPxjF0HQvLeGol8qw0xTfOIT0jR/GeRaT4DYRjENk3nz/feyU9v+jF3PfoK66stzBaoquoozuU3DAgE4IsvTNatE9xzj81llzkIUddqhbpGpRBgWd4nPd3bJ1lVwzCIRCLcc889/P73v08t42JZFpZlUVJSwurVq5v93KSEeFzxxz+WcuqpW7j++iK2b7cxzT3HORjr2DAMfD4f8XicZcuWEYlEDqrOUnh5CQ4Vn89HJBJh6dKlxOP1M+0LIQgEAk2KWkP8fj9paWls3LiR7du312sYxD7q2bBRNE2TCRMmcNVVV7F69ep61q5IxMw+9dRTnH766SxcuPCA66c5tjAeeOD+B4RTxYJpq2h7xtXc9dNLCM5+n8+2p3PaSd0xj2JM4IEghCAUCh3xlt4woLhY8MknBu+8YxKPC7KzIS8P2rVTxOPw4YcmU6ZIwmHo2lWhFNTWCtavl1RXw3vvmaxeLenSRREICBzH4ZFHHiEzM5N777039VIuWbKEjz/+GNd1OeOMM2jfvn3D6hwWpil4//1q1q+P8cYbHamtdfnoo2rOOCMDn08AgtWrV7Nu3To6duzY8Of1kFJSVFTEhx9+yMaNGxk+fDh9+vQ5YIHw+UyCoQiFxaXkZGc2/Hq/CCFYsGABCxcu5PTTT6dnz56p50Ak8jxMnjyZ9PR0MjObLl8IgW3bTJ48mS+//JK2bdty6qmnkpOTk3InRWNxCneWkJXpTVFNopSiaGcpSikCfk84Xdeld+/eBAIBXnvtNYYPH05WVhZKKSzLYv369fzzn//koYce4tRTT8VOJLnRfLuQKJeYm8kpV32X807ogArk0rlTPvGyGmxX1Eu8k+zOGIaXneg/xdE6tuNATY0gFoNIBMrKvO6/lPDCCyYTJkhqa+GppyzGjTPw+bx9brnFx7PPWtTUQDDozeCVUrJ+/Xo2bNjAtddei8+3J39qLBYjFAoxbdo0XnrppQPqPietnuSnKYSAWEyxZUucQYMC5OUZnHpqOkVFNtu3x5FSYJomH3zwAX/7299Q+8kQJYTXMIRCITZs2MA///lPSktL9ymoQggMw5uZNXX2Et755GtqaoN7ncP+ziWJ4zjMmzePRx55hFAolPqNlJKqqir+8Ic/sGzZsn3WKUk4HKaqqor333+fL774AsuyEvU1qA2GmT5nCcpVqXsiEt2TeYtXUbSrDMva4yJQSnHRRReRmZnJp59+Wq9eUkoyMjLIzc09oHPUHJskkqO4uI6Lkhb+4GY+fm8m+WdewCk981GOi2EYlJSU8OSTTzJlyhQmTpyIZVn07NnzP7L6aPIBPZIPplKQmwunnuqybZtnZd59t03nzoqVKyUvvmjywANxrrzSJS8Pnn7a4jvfsQmHBZ9+avKb38T5wQ8chgxxEz5LgwkTJrBr1y5+8IMfpKaAKqXo2rUrI0eOJBAIsH37ds4777yG1UkhhWB7UQkffDaFhcvWsGj5WhYsXY1yFR3atW64O0JAJKIYO7aabt18nHRSAMdRjB8fZMAAP126+HAclwEDBjBq1CiysrIaFlEPpRR5eXmcdtpp9O7dmxUrVjBixAjy8vIaTSoiBMTiNms2bOXjCdPIzszg9GEn0r1LR+Jxm/GTZvHNrIUsXrGOBUtXs3l7MZ06tCUt4GsylUSPHj1o1aoVS5YsYfTo0QQCAUjULRAIcNFFF9GnT5/9+kMNw+CEE07grLPOoqSkBCklw4cPJxqNUVFVQ1l5FdsKd9KubYGXStFnURsKU1lVw8YtO0hP85Pm92MmehpKKdLT06murubrr7/mggsuwDRNiouLWbFiBSUlJZx77rlkZWU1eq00xz51TCEDn1PMey++THmvy7n2rN6IhH/KcRzat2/PpZdeSnV1NSeddBKnn346sdie1GlHC3EU0/c5DkSjEIt5n3gcXBeKi8HvVxQUeNu6dXOJxxW7dwuEgI4dFT17KsJhz6JVynvZt23bRvv27feynGKxGLZtE41G621vDAVkZqTRr3c3+vfuTv/e3RnQpwdtWuc33DWFlGBZe26143hCZxheg6SUoqCgYL/d/SSO4xCPxwmFQjiOs8+GTUpJSWkFi5avpWfX4zixX0+6dGqfsNoF3Tq3Z0CfHqnz6Nn1OHyW2aSYAti23WSkh2EYdOvWjYyMjEa/r4tSikgkQjgcTj3LUgqCoTCTZy5kyqyFFBaX8MXk2cxdvBLXVSxfvZHPJ85k09Yi5i5exRdTZlNZXZO6Bo7j0KlTJ2pqaqipqcF1XV5//XXefvttRo0aRUFBwX/ECNEcHRJvmcSXFmLKq08zuXYgN//obHKJUTc/im3bnHTSSdx0001cdtll+31YjyT7eoGPNEpBZibYtiAc9gafQiGB60JGhudHVcoT3roIIcjNzaWiouKwrROlFLFYjGidz75eUp9P0KGDSW2tCwhKSx1cV9Gu3R4L7kDcDIeC47h07tiW7158FkIIJk6bz7sff0006glY3LZT5xCJxYjF44kkz01T1+3UcHAo+Wwc6vPpuoqc7Ex+ePkofnDZ+RzfvRM3/+BSvnPuaRiG5IzhA/nZdZdzYr8eXHzOCG78wSW0aZWXOl7S7eDz+fD7/Ugpuf/++/nd737H008/zbZt2/ZrOWuOXSRC4vOF+ealR3hufhY/uOJU4sXr2LijgniDZzIej9O/f/+9LKyjiTqKo/xJ4nHPQk3+/wknuHTsqPjsM4NVqwTPPGNy9tkubdvusWobe58HDx5MZWUlNTU1hyxgSikK8nM4/4xhXHDmcC44czgXnnUKx3fv1HBXSDQAliUYMMDHvHkR5s8P8f771bRrZ9Kxo4nrKgzD4KGHHuKJJ544IvfWcV0y0gOMOnM4F51zKu3btmLO4pUYhsHQk/pz4VmncMGZw7norFM4feiJpAcCTQqi4zhs3bqVLVu2UFZWxrp16ygtLYU6oVxXXXUV69evP6xrHIvHsR0Hv88iFo+lVkqI2w7RWBzLMlFALBpPZWZLPpPz5s2jf//+ZGd7C/7F4/HUIJltH9gy3ppjE+m64FRVUx3z0SGvks/HPMM/n32WF96dTpWt9lpfx7btJh/2o8HR7PKTEKQTTnA58UQX1/UsT58PHnkkzqZNkt/8xkfPni533RVHKcjIgJEjHSyrfjmu69K/f398Ph/jx49vtFEwTfOAzst1FdFYvN7Htpu2UG1bcdFFWZx6ahr3319KZaXD737XikBAopQ3UWLlypUMHDhwrzrti6R1eKB1jsXj5OZkMvzk/owcNjAlNnXPIxZv+vlK3vunnnqKcePG0aZNGx555BE+//xzSIR+rVy5kpycHDp02LOy6f4QwhuYq9tzUEqRn5vN5Reeudd9kVIy6sxh9OzaEbtOz8Dv97N69WoKCwu5/PLL97KclfIGt7SF+u1F1AaDSgiJ5fNjJXxqALg24UjLS2kmhCAYDBIIBA7ZAjlYkiGFdV3GQngxqkIoXFekrFIhvLjUxqxU0zRZvXo1jz32GH379uX2229PiZJpmjz44IPU1tbyyCOP7LMLf6j4fALTFCgF0ajXQAghiMVizJ8/n6FDh2I1bAkaQUqJ3+/n888/5+WXX+bJJ5+kXbt2R6TODRGJONO6wm/bNrFYDNM0Wbt2LQA9e/Y8IEE1TZPa2lpuv/12zjnnHG644QYikUjD3faLYRhMnz6dJ554guuvv54rr7wyZXxIKYnFYvz1r39l4cKF/PnPf6Zfv36H7frRtDx0+r6jjGVZFBYWUltbS8+ePSktLeWuu+5i+/btFBQU8Pjjj9OtW7ejIk518fv9xGKxfYpQUhgef/xxvvjiC3w+H3feeSeXXXbZXgH2/ymS8cn7q49pmsyePZs//vGP1NTUMHToUP74xz+SkZFxSEInhKCsrIzy8nJ69eoFDfy4UkpqamrYtGkTXbp0qRfvqvn2cEwKarL7dKyS7PIlLZjkC5y0Vg/lhT6auK6XDV8mpim39Po2Rd1rn7TMD+dcZCKcr6nkPcnr5TjOYR1H03I5JgVVo9FoWiJHxwmp0Wg0/wUck4J6MCPRh8rRGvDSaDTfHo451RBCUFVVdcQHbcrLyxtuanEIIZDNlBFM1PEBHo0GqyG6/dJ8G0j5UKVhYlmmlwvFdbwZKy3Uu+o4zhF/8W3bbvHxgvG4TSxmk56+d0xrY0jhLbFcN3YyiVKK0t3V2LZNbnYm6el7UvlZloVpmqn4X4HAb/mJO3FMaeK4DrZrY1meMMZiiQkFJtiO9/+m6WXwIjH1tW6yJdf1ks/4/Xv22ReWYSGF9I5pWETj0SOyvpbP50vFoMb2MxuNOmkYAaLRaGp/I5HuMBqN6sGobznG/9137wPKMAgVrWP6N1NZtHwVW6sU7dq1xS/3Nwnw6COOUvq+UCjUojO4W5bJrHmreOXdrxl5ygBMY98mnhCC2mCYkrIqsjLrLzsgheDrqYt55Z2vWLV2O/l5WRzXoSAxy8pi7dq1fPPNN3Tq1Am/308oFmL6hplY0mJJ0VKUcsn257BqNaxeDa0KvNjdtesh4PeEcv0GWLoUNm8BaXiJZ5TyBLS0DF55TdChvaBVwd7xu3URQrCuZB3rSzcSd2IsLlxCu+y2mEbzN34LFy7kiy++YOXKlbRp04bMzMxGR+9JiOaiRYv49NNPWbNmDfn5+alEMzt27GDChAl06NCB9PT0JsvQHPtIn88iEC/j668+Z+7aEuKhEqZ+8DxvfL0OW1p1s/e1GI6kkCY5GscgcRzTNDAMb8UEs0FqxGQmo+RqCkmUq+jd8zi+d+npmIaRavhMw8BI7G8YEpkoyzJNNm4uZsbclV5Zie1SCKK2w7TZK7jph6P4y//dzPDBvVNTUtevX8+jjz7Kzp07ATCEwe7gbn77ye9YXLiYf37zNDM2T6OoyGTuPE84FywS7CgSzJ7rTSIor4BJUwS1QSgpgX+/LygqBik88czJgYsuULRupfbKgdAQQxh8smwcT0z+O0sKl/LQhD9RG6lBin03KE2RzAtg1smmn/w8++yzfPLJJ9TU1KTylyb3rftvkmg0ys6dO/nrX//K7NmzU+UppZgyZQrPPPMMtm3v5Z+3LGuvbZpjE+OB++99IBqHgi4ncNa55zJ0yBAyC6cxYZPFWcP74ZP77ub8Jzgavr7kMY4kUgpKd1fxrze+YNnKLbz270nMW7yWE/t1IyMjQElZJR9/MZut23fxrzcnsGj5Bnp170B2VjofjZ/Ny29/RSQSZ/BJPTENSVl5De+Pm87cxWt57d+TWLRsI716dCQ9zc+Y9yfz1tiprNu4g29mL6ewuIwT+nRh1vzV/OOFcWzYXMTq9YVMm7Oc7p3bkp+XRTxu8+CDD3LKKafwi1/8AiklrnIRQrKyeDXn9DqbkmApgzufTLi0C+npirPOhPkLBLt3wwn9FZ07e+farw8MHQK9egnmzIPsLEGXLrB2Hbz8qmD7dkHv3oKszH1bqFJIdtWUIhEMPO4ESmt3c2G/CzHlnkblQJBSEg6H+eMf/8j//d//8fLLL1NYWMgpp5yS6uZ//fXXXHjhhfzsZz8jPT0dIQSvv/46kyZN4tFHH+Xpp5/G7/dz4okn4rouPXr0YMSIESxatIgePXrQv39/bNumoKCA008/nbfeegvTNOnfvz+O42AYBuXl5fziF7/A7/fTp08f7RI4xpGgcGUabduksW3u1/x7zOtM39GBa686nUyfs8+H+z+BOEpz+Q9l+uHBI3Bsh0XLNlKQn83Tj9zKce1b8fbYb1LXfeLUJVTXhnn03hv47c+vpHWrXBzH5YqLR/CDK86kpKwKx3ERCFzXZfqclbRplcNTf7qFtm1y+fDzmQD8+JrzuPI7p3HuyIE8/sDN/OSa87Esk9OG9eeh3/+I3j2P49YfX8Sffv8jOh/XBiEkGzZsoKSkhEsvvZRIJJIK6M/2Z/H81U8zsOOJPHjx/zGy++nk5Tts36GYNMVLWWgY0K+vZ4X6/Z4LYOp0GPcZdOkEA09U2Db0Oh5u/LHnAQ2FvKm7+8J2bS474RLuHvV7hnQewuNX/BW/6cM9yOdBJRJp33rrrcyaNYsvv/ySHTt2MGfOnHrupGg0Sjwex3VdpJRs3LiRjz/+mFdffZWnn36aF198kXXr1iETs8hCodBeCVBisRj5+flccMEFjB8/npoaL92fUgrTNOnWrVsqkYrm2CZhgimUsgnXVBMM26Tl2RSX1GLbQnf5jyiekLQqyGboSccjpWT4kN7sLK2guiaI6yp6dmvPeWechN9vIeWe+yFTroI99XQcl66d23LK4D4EAj46tssnHrNxHDfhAvCiAgxDpqIDkn8jkjN5vEfCNE2WL1+eypJUL3EICle5KBRKKRxX0aWzon8/bx2tVgVQUwNvvi1YskxgJganampASi/FYXW1V5YQnvgaRiLU4ABQKFy8+hyqCCmlyM7OprKykl/+8pfcfvvtLF26dJ8NaVIAr7/+etq0aUOnTp3Iycmhqqpqv8+L4zicfPLJFBYWUlJSghBeA5idnc1DDz3E6aefrpdF+RbgvT0CXDeTky76Ljf+9Bau7O/ns6+nUh1xD/ghP1qoo5S+70AXrGsOLNPEMg1QCp9p4joujuMJhml6PtEDEQ6V8qEaKKW8tHJ1LpNSIA7Q1ygSy3X7fL56fsLGUApMCSOGwYhTYGcJ1Abh+B6KpcugtBSys+DiC+HS0d6o/oKFAnPfxR4SIpE8ZX/uGsuymDt3Lg8//DCjRo3iZz/7GX379t1vl9s0TSzLSlxfz2I/kGcx+dzatr2XcCrlNUyaYx+JEMTDEWqra1OrnFZVVUNcpayVlkTyRT/SD2A4HG646YggBJRXVrN5ewmWz8/GLTvJzEgjKzMNVyUSVu/1G4Hl8+P3WRiGQUZaoM7aRqqJECKFZRkEQ2ECfgu/39pn99q2bXr16kVVVVW9dZuaQgGxOMyaJejZA3JzoHcvzzLdUeTtI4X3qajyXAAK8FleJIBheK4Bv3//3f6mEIlMZOPHj6e8vHy/dd60aRM5OTlceuml9O7dm5KSkv0KKodoFScH+AoKCsjPz0clciGEQiEmTpzIzp0799sIaFo+EmkggrsY/8pD/P7+B3nw3v/huVk1XHH5pWT7vBe6pXE0HryjcQwPgc+ymDR9CX98/C2++mYR3zl/KH6/D9d190q0IYSgujbEc69+yttjv2HFmq38+cl3mTp7OSLR7U/qqatUytK1HZf+vbuwdn0h9/1lDP/+eBrRmOfrU4nf1V3g1rZtBgwYgGEYLFu2bL8hZKYJq1YLqqrh1FO8PLpj3hbk5ULcFvzrJcGz/xI8+U+Bz1IMG6JwHMFXkwSvjxFs2Aj/fg8++sRLhbgfLWwUy7JYvXo1Dz74INXV1fsUVKUUAwYMYPv27Vx11VU8+OCD+P3+vWKPPTfIHlO6YWKTeDyeuj8N900iEwlv5s6dy2mnnZYS1KTIPvzww+zatavR32qOLUQ4HFLYMUqKt7KrMoZAkd6qE107FCCceKO2zn+ab0tgv5SCop3lPPXiJ/zwu2fjswyyMtPo1LE1juNi2w5V1SFyczLq9RZs22HbjlIcx8U0DaKxOK3zs8nNyaCyOkRudgamaVBTGyYWt8nL8ZZBFkJQvKuciqpasjLT6NA2H8OQuK6ibHc12Vnp+P178qEahsH48eN57733uPvuu+nevXuT11wIz0cKXhhUTY3X1W/d2rNGi4q9YH4hoH07yEgHx/X2qQ16S8nEbc9abdvm0GZO+Xw+Xn31VWpra/nZz37W8Ou9kFJSWFhIYWEheXl5tG7dGsuyUvGmt956K926dePHP/4xeXl5BAIBysrKME2T3NxcbNumuLiYVq1akZaWRnV1NYWFhdx3331ce+21XH311cTjceLxOB9//DFTpkzhz3/+c2pdKdM0mTp1KvPnz+fOO+/0GreWaMFoDpjETCmBNAxSsxiV58NribdWCEFNTQ3p6elH1Iqsrq4mOzu74eZmRUrJjuIy/vL0h/zvL6+kS6e2uI5bbyZT0rppiGHUb1Bc1/Pp1d0/KaJ1f28YBkJ4FlrSegUwpEy4GOrfdcuyGDt2LNOmTePee+8lPz+/yRlDwlthGdf1BFEKTzQB6nqPHHdPaFRyvyRuI+txHQxJy6+xa9YYpmmmrlnSl+m6LkIIXnzxRSZMmEDr1q353e9+x/HHH19vn+Tvk+L473//m3//+9/4fD5+85vfMHjwYJRSLFu2jGeeeYY777yTAQMG7LW4pUz4yBtee82xxzGZvi/5EB/JB9CyrP0mKT5chBAEQxGWrtzMwH5dychIO6LndKg0nHr634Lf7091w+tOJW2K5FRVmph6eiDTVzXHNsekoKoDHFk9HI7GMUiIqs9nEos1vZaSRqM5NjhyfeYjyNESuqOBUopodM/AhkajOXY5JgVVo9FoWiLHpKAeaf8piVF+jUajORiOOUEVRymwPxQKNdyk0Wg0+2RvQZUGlmXWC2VpaRzJcKkkOshao9EcLDLNt0c4DMtHaMsU7vnFfUxZX4VptTxRUd+yufzeKL8Pn89Heno6aWlpe52baRip/KV1SSU2aYBhGAQCgb3K0Wg0R5Y676lEhHcx+Y0xLKyKUROOH9L0vyPN0eryH625/LFYjCVLlrBs2TKef/55PvzwQxzHqSeGhUW7qA2F620TQlBRVUPRrrLUNhLWe3FxMZMmTSIajdb7TqPRHFkS5o3A8MPK8a+yOu1sTu0uUzNcWiJHo8t/NI4hErldf/3rX/P3v/+dkpISXnnlFV566SVEYv0nIWD2whXsKi3HqFMnyzTYvLWIhUvXYEiZSiplWRYLFizgzjvvpLa2VlupGs1RRAJIn5/wii95fXUu1/1gOJnxljntlG9hl5+EsF599dXcf//93HTTTUyePJlQKEQoHKGsvIq4bVNTG2J3ZTW27WDbDmUVVYTCEWJxm9LySkIRzxqNxWKceeaZfPDBB+Tk5BxxS16j0exBIgxktIivv1nB8HMvp0f7dIQ08AXSUun8WhLfti6/UorWrVvTs2dPHMdJTfNUSrFw2Vo+njCNjVt2MG3OYj6fOJPdFVWUVVTy8YRpzFuymrUbtvLRF1NZtW5zqrysrCx69OhxxJO7aDSa+kikpHTdXMZ/OYNZX77Bnx95hnmrVvP5668xvzja6GDIf5qj0R0/GseoS93kHCKRdejc04dw2/VXcELfHlx+0Znc9INLaN+mgA5tWnHr9Vdw/hlDGXRib35xw5UMP7l/qiyRSIpypBsdjUZTH4lrk9nlVP73z49ww5UXcdG5p9KxIJ++Q4fRNcezlFoS37Yuv1IqtV67EALHcVKDSXHbJhqLY5pe9qRoLI6rFK5SxKJe4hbT8NL3JTNU+f1+PvzwQ26//fYjntxFo9HURzqOiy8tj+4D+jNw4EBOOnkIp51xJqcM7U+e30s+3JL4tnX5LctixIgRZGZm4jgO7dq1Y8SIERiGt4yJEIILzx5B547t6qWksx2H/r27c/ZpXoo4EtfGcRwWLVpEt27dCAQCdY6k0WiONKI2GFT1bD0hvTVz7Bi2e2RF61AQiWUuDmTdoMMhGAySkZHRcHOzI4TA7/cTjUZRiVyepmkeVsjTvHnz6N69O23atDngvKAajebw0en7muBoHONIkVwMTufe1GiOLkfOxDuCHEnLNMnROMaR4kCSIWs0mubnmFSNI+0/5SgdQ6PRfLs4JgVVo9FoWiLHpKAeq75NjUbz7eaYE1QhBFVVVdpHqNFoWhypUX4hzTp5UBV2rGWGTZHI2O8lDjnylqrf70dK+V+34qdGozl4RCQcUi6SWPk2lq1YSVnQRbmZ9B52Mt3bZKFaWNopIQQ1NTWkp6cf0ZF4IQTxeJwZM2YQiUQYNWpUKtheo9FoGkP6LQPDZ7Jj7lje/Ggq23ftZtfOUoKxlrum0pEU0roopSgrK+Nf//oXn3zyic7ir9Fo9olQdlTFpWLJW3/la3UG//OjMwmgiEejxFuYdZrkaHX5hRCkpaXx0ksvsXHjRh566CFisVjD3TQajQa8QSmBFGHKyqIUL1nA5+PG8eXslYQcA+PI6tUhcbTm8pOwUGOxGNFolIqKCkzTxLKshrtpNBoNAMYD99/7QNxR/H979x5dZXXnf/y993M5JzkJ4ZJwCQTkfhGCiuLd1qFd2qF2xs5vdU11ar1UxfFHV3VmYI1OGahDRceuqnVwpvOz9edMlTojSq0orVVE6wW5yFUwhECAQCCEkHCuz2XPH09OuFgqMiGcwPe1VhbhPM95Ti4rn7P3fvb+brcoTphppa11N++98RobkoO4aGx/dIGVR1FK4fs+tm2f8hZqXklJCTt37uT5559n8ODBVFRUdEmgCyG6Fw2GwLMYVH0V35o2jdvv+lu+/80LWb/uQw6mw4LbV6qryvflKaXYu3cvW7ZsYerUqVRWVkqYCiH+IA0KlcuROnSI/OhgMpnCceNoq9Dap13b5c/bunUrgwYNYurUqfTo0aNLX1sI0X1olMYhxcrF/585s3/A3Nkz+OdX67nmy1+iZwwKMTu66i4/7QFu2zZaazzPkzAVQhyXSqdSBhXQvHsHO/e0EAAlFYMZUdUPglzBtVDpwrv8xhhaWlp47LHH6NGjBzNnzpQq+EKI4+pYKaUtq2ObYmNCAj8oyDBVStHa2koikTilLVWtNel0mkceeYTm5mbmzp1LUVGRtFCFEMfVLQtM27ZNEARdEm7xeLxj3FYIIf6YbhmophtX0xdCnLlOXZ/5FJIwFUIUom4ZqEIIUYi6ZaB21fipEEJ8Ht0uUE/HxP6T4To2tt051als26K4KEZxUQzL6na/MiHOGkfdlNKWja0VBggDn6AAC0wrpUilUh2FnwuNUhCEht8v30ivshKqxw0lDD+7alf0vRjCY37mtm2xYXM9r7+1Gq0113zxfEYOH0gQhB2LDowx+H5UbtFSFlprgjDA1jZe4GEwKAVaw+fZ6MDSFlppwjDE0hZeeHhhQ75IjO/7Bf/mJkRX0UWuBhS2bXFw1S+4Y9qd3Hn7vSx4fzvGsim02z/GGFzX7ZIbU1orHNvCdWxiMQfHtjuOWZbG0hqn41jUGlVK4do2NbUN1O/ah462QGgPPwvHbj/fia6llCIec1m9rpYNm+spLo5jt9ddjbkOqXSWF195lxFDK7nm6guoKO9JGBq01hhjmDVrFjNnziSbzeLaLi+tXcTfvTSDNz55gzsWTGNfch+uY7G5RrH4NfD8KPTztAbLAscB140+B4jZMRate5l7Fv4Nb9Ys5c5f3sXetr3Ylk0ul2P69Ok8+OCD7dc4+o3NdV3sI35WQpwttFIa7Vq0rlnI7P/3Dlfd9kMee+yfuH5SFSrwC25yf1d1+bVWtBxMUrt9DyvWbOHV11fwcc0OtFZorWnY00xzSxvrNtax+LcrWL+5Hq0VqXSWt5dvYNSIgVx03siOluShZIZt9XtZv2k7i19fwYZN27Fti3Q2x9L31vGbpatY+vu1LHljJVvqGtBas2FzPb967X3qd+0jlc7S1pbCtqMVYkopHn74YYwxzJkzh1gsBsD+VDPbmuvRymL7/nqCMASjGFhp2LFLsWuXIp9/SkHzAWhshI/WwNvvwO49UchqpWhJt1C3fxtKKXa2NOAFPphoW5jZs2dTV1fHs88+e1RJQ2MMK1eupKam5lNBK8SZzpo9a9ZsrQ7y2n+8BBfdzJ3XjsSxo1qo4SkOrZOhlCIIglNevs9xbNZv2s6Pf7qIdDpLKp3lt2+torJ/H6oqy3nl9Q/5r1+9QzbnkUylSRTHGVxZQTab46MNW1m0+D3icZdzRw9GK0Xttt386MmFHEqmyOV8fvPmKvpV9KS8Vymr1tWyftN2aO/il5UWU9m/N1vqdrO5dhc7dzeRSERDHIMqyykrLWHDhg0sWrSIe+65h/Ly8o43mB7xUiYMOJcRFSMYWn4OY/qNRilNPA4tLYqGBhg1MqrRYFmwchX810KFUrBvH6xcrThnCCRKDD1iZYztP5ZRfUcyvGIYI/uOwNLRNjClpaX07NmTBQsWMGnSJHr27AmA53nce++9NDY2MmXKlBMa7hDiTGHNnv2Ps2ndzdL3PiabquWF557m2UVrSJwzmhH9SzEFOI6qtT7la/ktrdmz7wAr12zhjpv+lGunTKZhz34+/mQHl140lo2b69l/oI27bp7K5RefS1VlOb4fEIs5VI8dSv2uJkpKihg7qgowNDW3smrtFqbd/KdMuWoStdsbaNhzgMsnj2Xc6CE07m1h0sSR/MV1V9GvbxmeFzJyWCVVAyuo2drALd/8MpdNHodjWyitefnll2ltbeX666/v6P4bY6goqWBon6EUx4oZ238sdCyEgJIEvPmWYsRwKCmJWqJ12+DgQfjWDTCxGlasVCQSUFlp6F3ch+Hlw0jEEozqOxKtotfJX7O8vJwlS5aQSCQ499xzCcMQrTWTJ0/m4osvlqW64qyjQRHkfJL7VlPjXMzsh/+FWX/eh2d+/iJ7kmH7LqiFo6u6/ABhaOhX0YuePYoJfI8hg/rS3NKG50U3gMaMHERR3CWVypBr34PLGEhncnj+0Xd/jIHK/n3o3bOUbDZDPOZ2vEam/fxczsPzcnhegFKQ83zSmSxBEJDO5MhmchgT3QhqaGigrKwMx3GO+ln4oU/WzxKGIRnv8E6tYQj9+sHIEbB2XdQiNSbq9lcNjFqrnheNoxoD6ohrBWFA1sse9TrGGBKJBD179mT37t0dx5RSDBs2jAEDBnTJ70iIQqIxIXaiiN4VF3H1hcMpLSpixKjh9DQpDuR8oj+twtJVm+UpBZlMFs/zsSxNMpkh5jpHFJExnxoWie6mR4Glleq4KRU5fH6+1dhxxBiU0u3P/eM/c601iUSCdDpN8Dlu2xsD51XDlq2QTEYtVICT7YT4vk8mkyGRSBz1NcvYqThbaUyIF+/HeaPivL7oVbbvrue1376NVzqY/gkXU2C3pUyX3uXX1O/ax4cf1bBtRyPvrviY8WOGYNkWfhDiH7OJoVJR67Rp/0HaDqVpaU3StL8VPwgxxuAf0Wr1gzBaoNA+bhqPO9Rs3cXuPc2k0tmO84whau22NxuNMViWxcSJE2lrayOVSp3wz8IY6D/A0KvM8NGa6OZUGB49lcr3o8c+633Utm0aGho4cOAAEyZMgCN6D9/97ndZvHgxrhu1woU4W+gwDPGyMOEvbue2cUken/MDXtozhOl3fpVyxxRcgemu7fKHnFPVj001O3n03xYxYmglX/7iBfh+QGX/3lRVlsMRbziWZbF2Qx1P/OwV2pIpNtXs5F9+9msa97XQo0cxI4cPQiuFMYbBAysYPKgfJjRYlubKS8bT1NzKj558kfc+3ITVPi5aFHcZN2owRfFYx/fseR4XXngh2WyWJUuWdFTE+izGQMyFsWMhmTRks1BeDpUDom9DKTjnHOjVKzr3eFT7/NdXX32V6upqJk6cSBAEKKVobGxk27ZtDBs2rEt+R0IUEnUomTT5P0XLieHaFhifbDZ30l3BU0kpRTKZJB6Pn9KupevYfPjRJ7z4ynv8/fe+Qa+yUrzAx2sfK7UtCxRHtTppD1XHjo5hoo+c54GKjuXHX/OrqPLP11rhOjag8IOg43GlFI5j4XlHL7d1HIeNGzcyb948Jk+ezC233EIsdjh0/xjLisLT94/+HKL5qMe2Wo+klMLzPB599FE2btzI3LlzGTx4MJ7noZSiubmZ9evXc+WVVx77VCHOeFK+7zgcx2b1ulpe+c1y7r7tq/QoLf7UKqbTzXVdamtrOXjwIOPGjcOyoilNp1oYhqxfv56Kigqqqqo6VmnRPkziOA7Z7OFhCyHOFt0yUFV7t7krdEV4/2/kVyQdGWpdIT+7oKtfV4hC1i0DVQghCtGpG4QUQoizjASqEEJ0EglUIYToJO1jqArbcTm6dnGIl/Uo1NIWWmtisRi+7+N53rGHhRCiy6lMJm3CbBtb1q+ibr+HpRVoi7hbzpjJY+ht6QJbKxWFaVNTE8uWLaO6upoRI0ZIVSMhxGmnY66NCjya99RTu7WOuvqd1C3/FfP+9SX2Z6MpSoUol8vxwQcfMHv2bHbv3n1KJ/kLIcSJUMbPmFTO4MRiOFoBISsXPMiCPZO4/44vEVNRhaNC4zgOqVSK73znO8yYMYPq6urPVShECCE6W3vZpBAvkyadzeHvXc8b61JcfPl5JNygIMOU9tU6mUyGZDJJNpslFosVbGtaCHF2OKqfbKuQT95/k+1mEOePLcd4hdviC8OQeDzOt7/9bRYuXMiPf/xj0um0dP2FEKfNEemjMF6SD97/kAEXXc2wRIhfoK3TPNu22bx5M0VFRVxxxRUdO4AKIcTp0BGoSjska5fw+92juO7qEfiZwl6jrZTi0KFDrF+/nq9//etMmjRJAlUIcVq1B6rGcg7y9ktvUHbZVxiZ8PEKPJeUinYfzYeozEUVQpxuOpMLAUPgWUz4P9/je18fD37hz+n0fZ9t27bR0tIi46ZCiIKgoz2ODCaMUTliNH0ThVel/1iWZbFlyxbmzJnDDTfcwLhx42TKlBDitOu25fu01sTjcTzPk+6+EKIgdNtAFUKIQiODj0II0UkkUIUQopNIoAohRCeRQBVCiE5yOFCVxnFcXNcl5jpRXVQhhBAnTIW5jEkHCiv5CT977GlW1u8lU1HN3bfdwoVDE3hB4U/yF0KIQqCV1sTcQ/zuP37OKnUJD85/gtvHNPPvv1hCi2chFfGEEOLERF3+0MK2XAYPr6RXcQ96lfRhSGUPLEtRcPufCCFEgVLGz5i0rwkP1fLC/J/yVk0TpUMu4Za7bmJMH5tAuvxCCHFCNChs5fPJm6/yvlPNnAfu4zy28OryDXhopMcvhBAnRqNtdMsWXnurlou+8EUGDBnDzbd8idrfv8+u1pxsKyKEECdIY0JI9GRwvyL2bNnO3pb9rFj1McmcRbFtIYOoQghxYlSQS5tMaOE2fcRj//4sm3e1EfQ9j7tuvZHzBhWRkzFUIYQ4IYerTSkL13XQqn0XVM8jCKV1KoQQJ0rK9wkhRCeRtfxCCNFJJFCFEKKTSKAKIUQnkUAVQohOIoEqhBCd5IhAVdiOSywWx3XsM3bJqdZgWcc+2jW0hnhcUVSkTtvXIIQ4dVQmnTJBqHDtHLXr1rJ1z0F6VI2hetQQnDDHmTStXyloa1McOgQDBhhMF04Y0xpyOcPSpSnSacMVVxRRXm4RBMeeKYTorpTxsyZLwI53FvDkC3VUVrk07E5x2TfuZuoF5YR+Yf7FKwW2DcYc/jeXi/61rOgxpSAMwfOix4uL4bXXLGpqFNOn+3hedMy2o2v6fvSv60IQRB+OEz1X6+jD9w8/TntQGhNdJ/yMd5/58w+wfHmasjKNbSt+8IMKSkp0+/U1juOQy+UwXZn0QohOo1EWsWQDv1n6CWP+7Fb+5u/+gRl/PoLXf/c7DqRMQRaYtizYs0cxf77N88/bXHNNjBtucNm6VVFUBJs2KW680eWyy+Lcf79LJhOF7f33O0yf7vLEEw5XXRXjhz+MUvGFFyyefdbGsiCTgfvuc/jgA43rwjPPWLz8ssXdd7tcdVWM//5vm5YWePxxm4cecrj66hh/+ZcuO3Yo9HFGpLWGhgafZcuSPPJIP37600paWwNefvkQrqtwXZe1a9dy2223UV9fjyXjAUJ0SxoFfjZDW0sSNx4FTKJHCcm6Bpo8D1WAo6n5kH/6aZsPP9Q880yOJ57wGDrUsGOH4ic/cZg2zWfZsgxBYHjkEQfXhfvu87jpJo+/+iufF17IMX26h+NAQ4Ni587oukEAGzdqDhxQaG3YuFHzwAMOd9zhsXBhjq99zcfzFL/8pU1zMyxalGP0aMO8ec5xhxC0VuzY4VFSYlFWpvF9Q3V1EWvXZjq6/FprYrEY+nipLIQoeJowICwbwtf+ZByrX3yCuf/8OP/6/Fs0pz10AW/U5/swdmzIrbf69O1rKCkxOA7s2KFYvVrz3HM2993nsnq1pqZGk81CIgFFRRCLQVmZoagoulZ+iID2sHacqFWZPzZtms/EiYbSUoPrRl37qqqQm27y6dnTcP75Ia2timz2cNgfSWvYty/A86JxW2OgosKiqSkgCAyel2P8+PE8+eSTVFVVEcjAqhDdkgaDHziMmvINbr/hq1x2yeVcPGEIPQaWUqoKt3yfMVE42nYUcPmgymSgf3/DNdcEfOELAffe6/P97+c6gjA/Hpo/P3+tfID+oVkAJSWGIDj6/JKS6Dxjoutq/YfDFKLjffvauK5Cqei8fft8+va1sSzVcd0wDGX8VIhuLIoR45OzSxl3weVcfcVQdm7eytDhF9ArcfxubCE4MhTz/+/fP2qpVlUZrrvOZ+pUn9Gjo7Fg034DK5mEWMwQj0fhpjXs369wXUNbm6KxMQq+I697rHw4n4gwNFRV2bS1BRw4EGBZihUr0owd62JZUXe/qamJ5cuXk81mpai3EN2UBtB2jEO1H/D0T+byD99/iOX+hdz0ZxNx8Qq0fRqFWf7ufV4YwvDhhuuv93ngAYe7747x138d4+23LSwrGh+97LKQxYst7rgjxtNP2/g+XHppyLvvWtx6a4yHHnJobj7c2vT9w3f/88wRMwogum4ud/Q5RwpDqKy0mTIlwT33NHLzzQ2EoeIrXynB88BxHBYvXsy8efPI5WSXBCG6K5VOp4xBk23eyeYtdbSpHow8t5pBJZD1P2Me0GmiFGSzsHOnorIyGgvNh1u+S71qlWbPHoVtw4QJIQMGGMIwOrZ6taaxMXru+PEhlgUff6yoq9MMGGAoK4PevUPKyqC+XlFcDOXl0finUlF47tihqawMKS6OWrf79yuGDw+P2+3XOnoDePfdFJmMYeLEOJWVUaArBU899RQlJSXceOONeJ537NOFEN1ARz1UpS1s20JhCHy/4ItLq/Z5qL7/6a63OubGkudFrcj8Mdc9fEc/n12OE42J5rvyQRB9nh+jPXKO6bGvHXXbD1/reLQGx4mGE6KW7+EvPAgCmS4lRDcnBaaFEKKTyKRHIYToJBKoQgjRSSRQhRCik0igCiFEJ5FAFUKITnLEav18gelYVGD6OPMpT4RlWcTjcez8AnkhhDgL6BblYmkL225i0Y/mcOfN3+a+nzxPQzqOfRLtV9u2Wbp0Kddeey3PPfcclmXJyh8hxFlB/+K3G9FxzeoF/8kH1gTmPvowl4Yb+PkLb5DB+dzF+3zf54orrmDmzJn8+te/Zvv27TJhXQhxVtD7dx2E9D7Wb/OpvvgC+vSp5MrLR7Nt7Qr2Jb2Tal26rsvAgQMpKyvDGHNS1xBCiO5Gn3veOdipFvYeOojjxjAGevUbQGlzM9tzuc/dQgUwxmBZFgcPHqS2tpZkMnnsKUIIccbR111aRegdXU7JAOZkkrRdEAQMGDCA22+/naeeeorHH39c6nwKIc54uiibxSoppaKkDC+XQSloadxNsndvhrjuSZXvsyyLxsZG5s+fz/Tp05k1a5Z0+4UQZzzd3JbBK+rHhKE2a99fzb59u1j2znISg8fTu8jFnFSkQjabpaKigsrKSnJ/rFioEEKcIfQ//ecyDqVtLvjmt7jErGf23/49b2TP5//eMIWE5X2qNN6JcByHWCxGMpnE807uxpYQQnQ3ys9lTNYL2if2O1hagQnxPI+TKYlqWRZr1qxh/vz59O3blxkzZlBSUkL4WZvWCyFEN9fp9VC11uzatYtNmzZx/vnnU15ejn/sHiJCCHEGUvPnz+/UQBVCiLOVMjKfSQghOsVJrNYXQgjxh/wPrmRRhRynRVwAAAAASUVORK5CYII=;" vertex="1" parent="1">
          <mxGeometry x="380" y="74" width="340" height="356" as="geometry" />
        </mxCell>
        <mxCell id="RQTw91TnuGu3f8tLTRjR-4" value="" style="edgeStyle=orthogonalEdgeStyle;rounded=0;orthogonalLoop=1;jettySize=auto;html=1;" edge="1" parent="1" source="RQTw91TnuGu3f8tLTRjR-2" target="RQTw91TnuGu3f8tLTRjR-3">
          <mxGeometry relative="1" as="geometry" />
        </mxCell>
        <mxCell id="RQTw91TnuGu3f8tLTRjR-2" value="Mulai" style="rounded=1;whiteSpace=wrap;html=1;arcSize=50;" vertex="1" parent="1">
          <mxGeometry x="130" y="70" width="120" height="60" as="geometry" />
        </mxCell>
        <mxCell id="RQTw91TnuGu3f8tLTRjR-6" value="" style="edgeStyle=orthogonalEdgeStyle;rounded=0;orthogonalLoop=1;jettySize=auto;html=1;" edge="1" parent="1" source="RQTw91TnuGu3f8tLTRjR-3" target="RQTw91TnuGu3f8tLTRjR-5">
          <mxGeometry relative="1" as="geometry" />
        </mxCell>
        <mxCell id="RQTw91TnuGu3f8tLTRjR-3" value="Int a[10]&lt;div&gt;int i, j, n;&lt;/div&gt;" style="shape=hexagon;perimeter=hexagonPerimeter2;whiteSpace=wrap;html=1;fixedSize=1;" vertex="1" parent="1">
          <mxGeometry x="130" y="150" width="120" height="60" as="geometry" />
        </mxCell>
        <mxCell id="RQTw91TnuGu3f8tLTRjR-9" value="" style="edgeStyle=orthogonalEdgeStyle;rounded=0;orthogonalLoop=1;jettySize=auto;html=1;" edge="1" parent="1" source="RQTw91TnuGu3f8tLTRjR-5" target="RQTw91TnuGu3f8tLTRjR-8">
          <mxGeometry relative="1" as="geometry" />
        </mxCell>
        <mxCell id="RQTw91TnuGu3f8tLTRjR-5" value="n = 0" style="rounded=0;whiteSpace=wrap;html=1;" vertex="1" parent="1">
          <mxGeometry x="130" y="240" width="120" height="60" as="geometry" />
        </mxCell>
        <mxCell id="RQTw91TnuGu3f8tLTRjR-11" value="" style="edgeStyle=orthogonalEdgeStyle;rounded=0;orthogonalLoop=1;jettySize=auto;html=1;" edge="1" parent="1" source="RQTw91TnuGu3f8tLTRjR-8" target="RQTw91TnuGu3f8tLTRjR-10">
          <mxGeometry relative="1" as="geometry" />
        </mxCell>
        <mxCell id="RQTw91TnuGu3f8tLTRjR-8" value="for ....." style="shape=parallelogram;perimeter=parallelogramPerimeter;whiteSpace=wrap;html=1;fixedSize=1;" vertex="1" parent="1">
          <mxGeometry x="90" y="330" width="200" height="60" as="geometry" />
        </mxCell>
        <mxCell id="RQTw91TnuGu3f8tLTRjR-13" value="" style="edgeStyle=orthogonalEdgeStyle;rounded=0;orthogonalLoop=1;jettySize=auto;html=1;" edge="1" parent="1" source="RQTw91TnuGu3f8tLTRjR-10" target="RQTw91TnuGu3f8tLTRjR-12">
          <mxGeometry relative="1" as="geometry" />
        </mxCell>
        <mxCell id="RQTw91TnuGu3f8tLTRjR-10" value="hasil" style="shape=parallelogram;perimeter=parallelogramPerimeter;whiteSpace=wrap;html=1;fixedSize=1;" vertex="1" parent="1">
          <mxGeometry x="130" y="430" width="120" height="60" as="geometry" />
        </mxCell>
        <mxCell id="RQTw91TnuGu3f8tLTRjR-12" value="Selesai" style="rounded=1;whiteSpace=wrap;html=1;arcSize=50;" vertex="1" parent="1">
          <mxGeometry x="130" y="525" width="120" height="60" as="geometry" />
        </mxCell>
        <mxCell id="RQTw91TnuGu3f8tLTRjR-14" value="" style="shape=image;verticalLabelPosition=bottom;labelBackgroundColor=default;verticalAlign=top;aspect=fixed;imageAspect=0;editableCssRules=.*;image=data:image/svg+xml,PHN2ZyB4bWxuczp4bGluaz0iaHR0cDovL3d3dy53My5vcmcvMTk5OS94bGluayIgeG1sbnM9Imh0dHA6Ly93d3cudzMub3JnLzIwMDAvc3ZnIiBvdmVyZmxvdz0iaGlkZGVuIiBoZWlnaHQ9IjU3My4zMzMzMyIgd2lkdGg9IjU5MS4zMzMzMyIgdmlld0JveD0iLTAuMTY2NTY1ODE3ODcxMDkzNyAtMC4xNjY1NjU4MTc4NzEwOTM3IDU5MS4zMzMzMyA1NzMuMzMzMzMiPjxkZWZzPjxjbGlwUGF0aCBpZD0iY2xpcDAiPjxyZWN0IGhlaWdodD0iNTczIiB3aWR0aD0iNTkxIiB5PSI1MiIgeD0iMjQiLz48L2NsaXBQYXRoPjwvZGVmcz48ZyB0cmFuc2Zvcm09InRyYW5zbGF0ZSgtMjQgLTUyKSIgY2xpcC1wYXRoPSJ1cmwoI2NsaXAwKSI+PHJlY3QgZmlsbD0iI0ZGRkZGRiIgc3Ryb2tlLW1pdGVybGltaXQ9IjgiIHN0cm9rZS13aWR0aD0iMS4zMzMzMyIgc3Ryb2tlPSIjMDAwMDAwIiBoZWlnaHQ9IjU3MiIgd2lkdGg9IjU5MCIgeT0iNTIuNTAwMSIgeD0iMjQuNTAwMSIvPjx0ZXh0IHRyYW5zZm9ybT0idHJhbnNsYXRlKDMzLjYgNzIpIiBmb250LXNpemU9IjE2IiBmb250LXdlaWdodD0iNDAwIiBmb250LWZhbWlseT0iQ2FsaWJyaSxDYWxpYnJpX01TRm9udFNlcnZpY2Usc2Fucy1zZXJpZiI+I2luY2x1ZGUgJmx0Ozx0c3BhbiB5PSIwIiB4PSI2Ni44MzMzIiBmb250LXNpemU9IjE2Ij5zdGRpby5oPC90c3Bhbj4mZ3Q7PHRzcGFuIHk9IjM4IiB4PSIwIiBmb250LXNpemU9IjE2Ij5pbnQgbWFpbigpIHs8L3RzcGFuPjx0c3BhbiB5PSI1OCIgeD0iMTQuNjY2NyIgZm9udC1zaXplPSIxNiI+aW50IDwvdHNwYW4+PHRzcGFuIHk9IjU4IiB4PSIzNS41MiIgZm9udC1zaXplPSIxNiI+bmlsYWk8L3RzcGFuPlszXVszXTsgIC8vIGFycmF5IDIgPHRzcGFuIHk9IjU4IiB4PSIxNzQuMjI3IiBmb250LXNpemU9IjE2Ij5kaW1lbnNpPC90c3Bhbj48dHNwYW4geT0iNTgiIHg9IjIyNS4zOTMiIGZvbnQtc2l6ZT0iMTYiPjogMyA8L3RzcGFuPjx0c3BhbiB5PSI1OCIgeD0iMjQ1LjIyNyIgZm9udC1zaXplPSIxNiI+bWFoYXNpc3dhPC90c3Bhbj48dHNwYW4geT0iNTgiIHg9IjMyMC42MzMiIGZvbnQtc2l6ZT0iMTYiPnggMyA8L3RzcGFuPnByYWt0ZWs8dHNwYW4geT0iNzciIHg9IjE0LjY2NjciIGZvbnQtc2l6ZT0iMTYiPmludCA8L3RzcGFuPjx0c3BhbiB5PSI3NyIgeD0iMzUuNTIiIGZvbnQtc2l6ZT0iMTYiPmk8L3RzcGFuPjx0c3BhbiB5PSI3NyIgeD0iMzkuMTg2NyIgZm9udC1zaXplPSIxNiI+LCBqOzwvdHNwYW4+PHRzcGFuIHk9IjExNSIgeD0iMTQuNjY2NyIgZm9udC1zaXplPSIxNiI+Ly8gSW5wdXQgPC90c3Bhbj5uaWxhaTx0c3BhbiB5PSIxMzQiIHg9IjE0LjY2NjciIGZvbnQtc2l6ZT0iMTYiPmZvcig8L3RzcGFuPmk8dHNwYW4geT0iMTM0IiB4PSI0NS4zMzMzIiBmb250LXNpemU9IjE2Ij49IDA7IDwvdHNwYW4+aTx0c3BhbiB5PSIxMzQiIHg9IjgwLjUiIGZvbnQtc2l6ZT0iMTYiPiZsdDsgMzsgPC90c3Bhbj5pPHRzcGFuIHk9IjEzNCIgeD0iMTEyIiBmb250LXNpemU9IjE2Ij4rKykgezwvdHNwYW4+PHRzcGFuIHk9IjE1NCIgeD0iMjkuMzMzMyIgZm9udC1zaXplPSIxNiI+cHJpbnRmPC90c3Bhbj4oIk1hc3Vra2FuIG5pbGFpPHRzcGFuIHk9IjE1NCIgeD0iMTc3LjA4IiBmb250LXNpemU9IjE2Ij51bnR1azwvdHNwYW4+PHRzcGFuIHk9IjE1NCIgeD0iMjE4LjI2NyIgZm9udC1zaXplPSIxNiI+TWFoYXNpc3dhPC90c3Bhbj48dHNwYW4geT0iMTU0IiB4PSIyOTQuNTA3IiBmb250LXNpemU9IjE2Ij4lZDo8L3RzcGFuPjx0c3BhbiB5PSIxNTQiIHg9IjMxOC42NzMiIGZvbnQtc2l6ZT0iMTYiPlw8L3RzcGFuPm4iLCBpKzEpOzx0c3BhbiB5PSIxNzMiIHg9IjI5LjMzMzMiIGZvbnQtc2l6ZT0iMTYiPmZvcihqID0gMDsgaiAmbHQ7IDM7IDwvdHNwYW4+aisrKSB7PHRzcGFuIHk9IjE5MiIgeD0iNDQiIGZvbnQtc2l6ZT0iMTYiPnByaW50ZjwvdHNwYW4+PHRzcGFuIHk9IjE5MiIgeD0iNzkuODUzMyIgZm9udC1zaXplPSIxNiI+KCIgIDwvdHNwYW4+UHJha3Rlazx0c3BhbiB5PSIxOTIiIHg9IjE1MC45NCIgZm9udC1zaXplPSIxNiI+JWQ6ICIsIGorMSk7PC90c3Bhbj48dHNwYW4geT0iMjExIiB4PSI0NCIgZm9udC1zaXplPSIxNiI+c2NhbmY8L3RzcGFuPjx0c3BhbiB5PSIyMTEiIHg9Ijc3Ljc3MzMiIGZvbnQtc2l6ZT0iMTYiPigiJWQiLCAmYW1wOzwvdHNwYW4+PHRzcGFuIHk9IjIxMSIgeD0iMTMzLjYwNyIgZm9udC1zaXplPSIxNiI+bmlsYWk8L3RzcGFuPls8dHNwYW4geT0iMjExIiB4PSIxNjUuNDQiIGZvbnQtc2l6ZT0iMTYiPmk8L3RzcGFuPjx0c3BhbiB5PSIyMTEiIHg9IjE2OS4xMDciIGZvbnQtc2l6ZT0iMTYiPl1bal0pOzwvdHNwYW4+PHRzcGFuIHk9IjIzMCIgeD0iMjkuMzMzMyIgZm9udC1zaXplPSIxNiI+fTwvdHNwYW4+PHRzcGFuIHk9IjI1MCIgeD0iMTQuNjY2NyIgZm9udC1zaXplPSIxNiI+fTwvdHNwYW4+PHRzcGFuIHk9IjI4OCIgeD0iMTQuNjY2NyIgZm9udC1zaXplPSIxNiI+Ly8gT3V0cHV0IDwvdHNwYW4+dGFiZWw8dHNwYW4geT0iMzA3IiB4PSIxNC42NjY3IiBmb250LXNpemU9IjE2Ij5wcmludGY8L3RzcGFuPjx0c3BhbiB5PSIzMDciIHg9IjUwLjUyIiBmb250LXNpemU9IjE2Ij4oIjwvdHNwYW4+PHRzcGFuIHk9IjMwNyIgeD0iNjEuNjg2NyIgZm9udC1zaXplPSIxNiI+XDwvdHNwYW4+PHRzcGFuIHk9IjMwNyIgeD0iNjcuODUzMyIgZm9udC1zaXplPSIxNiI+biU8L3RzcGFuPjx0c3BhbiB5PSIzMDciIHg9Ijg3LjY4NjciIGZvbnQtc2l6ZT0iMTYiPi08L3RzcGFuPjEwcyAlLTx0c3BhbiB5PSIzMDciIHg9IjEzNS4xODciIGZvbnQtc2l6ZT0iMTYiPjEwcyAlPC90c3Bhbj4tPHRzcGFuIHk9IjMwNyIgeD0iMTc3Ljg1MyIgZm9udC1zaXplPSIxNiI+MTBzICU8L3RzcGFuPi08dHNwYW4geT0iMzA3IiB4PSIyMjAuNTIiIGZvbnQtc2l6ZT0iMTYiPjEwczwvdHNwYW4+PHRzcGFuIHk9IjMwNyIgeD0iMjQzLjE4NyIgZm9udC1zaXplPSIxNiI+XDwvdHNwYW4+PHRzcGFuIHk9IjMwNyIgeD0iMjQ5LjM1MyIgZm9udC1zaXplPSIxNiI+biIsICJNQUhBU0lTV0EiLCAiUFJBS1RFSyAxIiwgIlBSQUtURUsgMiIsIDwvdHNwYW4+PHRzcGFuIHk9IjMyNiIgeD0iMCIgZm9udC1zaXplPSIxNiI+IlBSQUtURUsgMyIpOzwvdHNwYW4+PHRzcGFuIHk9IjM0NiIgeD0iMTQuNjY2NyIgZm9udC1zaXplPSIxNiI+Zm9yKDwvdHNwYW4+aTx0c3BhbiB5PSIzNDYiIHg9IjQ1LjMzMzMiIGZvbnQtc2l6ZT0iMTYiPj0gMDsgPC90c3Bhbj5pPHRzcGFuIHk9IjM0NiIgeD0iODAuNSIgZm9udC1zaXplPSIxNiI+Jmx0OyAzOyA8L3RzcGFuPmk8dHNwYW4geT0iMzQ2IiB4PSIxMTIiIGZvbnQtc2l6ZT0iMTYiPisrKSB7PC90c3Bhbj48dHNwYW4geT0iMzY1IiB4PSIyOS4zMzMzIiBmb250LXNpemU9IjE2Ij5wcmludGY8L3RzcGFuPigiJTx0c3BhbiB5PSIzNjUiIHg9Ijg3Ljg1MzMiIGZvbnQtc2l6ZT0iMTYiPi08L3RzcGFuPjx0c3BhbiB5PSIzNjUiIHg9IjkyLjY4NjciIGZvbnQtc2l6ZT0iMTYiPjEwZCIsIGkrMSk7ICAvLyA8L3RzcGFuPjx0c3BhbiB5PSIzNjUiIHg9IjE4My42ODciIGZvbnQtc2l6ZT0iMTYiPm5vbW9yPC90c3Bhbj48dHNwYW4geT0iMzY1IiB4PSIyMzEuMDIiIGZvbnQtc2l6ZT0iMTYiPm1haGFzaXN3YTwvdHNwYW4+PHRzcGFuIHk9IjM4NCIgeD0iMjkuMzMzMyIgZm9udC1zaXplPSIxNiI+Zm9yKGogPSAwOyBqICZsdDsgMzsgPC90c3Bhbj5qKyspIHs8dHNwYW4geT0iNDAzIiB4PSI0NCIgZm9udC1zaXplPSIxNiI+cHJpbnRmPC90c3Bhbj48dHNwYW4geT0iNDAzIiB4PSI3OS44NTMzIiBmb250LXNpemU9IjE2Ij4oIiU8L3RzcGFuPjx0c3BhbiB5PSI0MDMiIHg9IjEwMi41MiIgZm9udC1zaXplPSIxNiI+LTwvdHNwYW4+PHRzcGFuIHk9IjQwMyIgeD0iMTA3LjM1MyIgZm9udC1zaXplPSIxNiI+MTBkIiwgPC90c3Bhbj48dHNwYW4geT0iNDAzIiB4PSIxNDYuMDIiIGZvbnQtc2l6ZT0iMTYiPm5pbGFpPC90c3Bhbj5bPHRzcGFuIHk9IjQwMyIgeD0iMTc3Ljg1MyIgZm9udC1zaXplPSIxNiI+aTwvdHNwYW4+PHRzcGFuIHk9IjQwMyIgeD0iMTgxLjUyIiBmb250LXNpemU9IjE2Ij5dW2pdKTs8L3RzcGFuPjx0c3BhbiB5PSI0MjIiIHg9IjI5LjMzMzMiIGZvbnQtc2l6ZT0iMTYiPn08L3RzcGFuPjx0c3BhbiB5PSI0NDIiIHg9IjI5LjMzMzMiIGZvbnQtc2l6ZT0iMTYiPnByaW50ZjwvdHNwYW4+KCI8dHNwYW4geT0iNDQyIiB4PSI3Ni4zNTMzIiBmb250LXNpemU9IjE2Ij5cPC90c3Bhbj5uIik7PHRzcGFuIHk9IjQ2MSIgeD0iMTQuNjY2NyIgZm9udC1zaXplPSIxNiI+fTwvdHNwYW4+PHRzcGFuIHk9IjQ5OSIgeD0iMTQuNjY2NyIgZm9udC1zaXplPSIxNiI+cmV0dXJuIDA7PC90c3Bhbj48dHNwYW4geT0iNTE4IiB4PSIwIiBmb250LXNpemU9IjE2Ij59PC90c3Bhbj48L3RleHQ+PC9nPjwvc3ZnPg==;" vertex="1" parent="1">
          <mxGeometry x="570" y="1070" width="591" height="573" as="geometry" />
        </mxCell>
        <mxCell id="RQTw91TnuGu3f8tLTRjR-21" value="" style="edgeStyle=orthogonalEdgeStyle;rounded=0;orthogonalLoop=1;jettySize=auto;html=1;" edge="1" parent="1" source="RQTw91TnuGu3f8tLTRjR-19" target="RQTw91TnuGu3f8tLTRjR-20">
          <mxGeometry relative="1" as="geometry" />
        </mxCell>
        <mxCell id="RQTw91TnuGu3f8tLTRjR-19" value="Mulai" style="rounded=1;whiteSpace=wrap;html=1;arcSize=50;" vertex="1" parent="1">
          <mxGeometry x="220" y="720" width="120" height="60" as="geometry" />
        </mxCell>
        <mxCell id="RQTw91TnuGu3f8tLTRjR-33" value="" style="edgeStyle=orthogonalEdgeStyle;rounded=0;orthogonalLoop=1;jettySize=auto;html=1;" edge="1" parent="1" source="RQTw91TnuGu3f8tLTRjR-20" target="RQTw91TnuGu3f8tLTRjR-22">
          <mxGeometry relative="1" as="geometry" />
        </mxCell>
        <mxCell id="RQTw91TnuGu3f8tLTRjR-20" value="&lt;p style=&quot;language:en-ID;margin-top:0pt;margin-bottom:0pt;margin-left:0in;&amp;lt;br/&amp;gt;text-align:left;direction:ltr;unicode-bidi:embed;mso-line-break-override:none;&amp;lt;br/&amp;gt;word-break:normal;punctuation-wrap:hanging&quot;&gt;&lt;span style=&quot;font-size: 12pt; font-family: Calibri;&quot;&gt;&amp;nbsp; &amp;nbsp; int &lt;/span&gt;&lt;span style=&quot;font-size: 12pt; font-family: Calibri;&quot;&gt;nilai&lt;/span&gt;&lt;span style=&quot;font-size: 12pt; font-family: Calibri;&quot;&gt;[3][3];&amp;nbsp;&amp;nbsp;&lt;/span&gt;&lt;span style=&quot;font-family: Calibri; font-size: 12pt; background-color: transparent; color: light-dark(rgb(0, 0, 0), rgb(255, 255, 255));&quot;&gt;&amp;nbsp;&amp;nbsp;&lt;/span&gt;&lt;/p&gt;&lt;p style=&quot;language:en-ID;margin-top:0pt;margin-bottom:0pt;margin-left:0in;&amp;lt;br/&amp;gt;text-align:left;direction:ltr;unicode-bidi:embed;mso-line-break-override:none;&amp;lt;br/&amp;gt;word-break:normal;punctuation-wrap:hanging&quot;&gt;&lt;span style=&quot;font-size: 12pt; font-family: Calibri;&quot;&gt;int &lt;/span&gt;&lt;span style=&quot;font-size: 12pt; font-family: Calibri;&quot;&gt;i&lt;/span&gt;&lt;span style=&quot;font-size: 12pt; font-family: Calibri;&quot;&gt;, j;&lt;/span&gt;&lt;/p&gt;" style="shape=hexagon;perimeter=hexagonPerimeter2;whiteSpace=wrap;html=1;fixedSize=1;" vertex="1" parent="1">
          <mxGeometry x="220" y="830" width="120" height="80" as="geometry" />
        </mxCell>
        <mxCell id="RQTw91TnuGu3f8tLTRjR-34" value="" style="edgeStyle=orthogonalEdgeStyle;rounded=0;orthogonalLoop=1;jettySize=auto;html=1;" edge="1" parent="1" source="RQTw91TnuGu3f8tLTRjR-22" target="RQTw91TnuGu3f8tLTRjR-25">
          <mxGeometry relative="1" as="geometry" />
        </mxCell>
        <mxCell id="RQTw91TnuGu3f8tLTRjR-22" value="Input Nilai Praktek ke J, untuk Mahsiswa Ke i" style="shape=parallelogram;perimeter=parallelogramPerimeter;whiteSpace=wrap;html=1;fixedSize=1;" vertex="1" parent="1">
          <mxGeometry x="180" y="950" width="200" height="60" as="geometry" />
        </mxCell>
        <mxCell id="RQTw91TnuGu3f8tLTRjR-30" value="" style="edgeStyle=orthogonalEdgeStyle;rounded=0;orthogonalLoop=1;jettySize=auto;html=1;" edge="1" parent="1" source="RQTw91TnuGu3f8tLTRjR-25" target="RQTw91TnuGu3f8tLTRjR-26">
          <mxGeometry relative="1" as="geometry" />
        </mxCell>
        <mxCell id="RQTw91TnuGu3f8tLTRjR-25" value="&lt;p style=&quot;language:en-ID;margin-top:0pt;margin-bottom:0pt;margin-left:0in;&amp;lt;br/&amp;gt;text-align:left;direction:ltr;unicode-bidi:embed;mso-line-break-override:none;&amp;lt;br/&amp;gt;word-break:normal;punctuation-wrap:hanging&quot;&gt;&lt;font face=&quot;Calibri&quot;&gt;&lt;span style=&quot;font-size: 16px;&quot;&gt;// Input nilai&lt;/span&gt;&lt;/font&gt;&lt;/p&gt;&lt;p style=&quot;language:en-ID;margin-top:0pt;margin-bottom:0pt;margin-left:0in;&amp;lt;br/&amp;gt;text-align:left;direction:ltr;unicode-bidi:embed;mso-line-break-override:none;&amp;lt;br/&amp;gt;word-break:normal;punctuation-wrap:hanging&quot;&gt;&lt;font face=&quot;Calibri&quot;&gt;&lt;span style=&quot;font-size: 16px;&quot;&gt;&amp;nbsp; &amp;nbsp; for(i = 0; i &amp;lt; 3; i++) {&lt;/span&gt;&lt;/font&gt;&lt;/p&gt;&lt;p style=&quot;language:en-ID;margin-top:0pt;margin-bottom:0pt;margin-left:0in;&amp;lt;br/&amp;gt;text-align:left;direction:ltr;unicode-bidi:embed;mso-line-break-override:none;&amp;lt;br/&amp;gt;word-break:normal;punctuation-wrap:hanging&quot;&gt;&lt;font face=&quot;Calibri&quot;&gt;&lt;span style=&quot;font-size: 16px;&quot;&gt;&amp;nbsp; &amp;nbsp; &amp;nbsp; &amp;nbsp; printf(&quot;Masukkan nilai untuk Mahasiswa %d:\n&quot;, i+1);&lt;/span&gt;&lt;/font&gt;&lt;/p&gt;&lt;p style=&quot;language:en-ID;margin-top:0pt;margin-bottom:0pt;margin-left:0in;&amp;lt;br/&amp;gt;text-align:left;direction:ltr;unicode-bidi:embed;mso-line-break-override:none;&amp;lt;br/&amp;gt;word-break:normal;punctuation-wrap:hanging&quot;&gt;&lt;font face=&quot;Calibri&quot;&gt;&lt;span style=&quot;font-size: 16px;&quot;&gt;&amp;nbsp; &amp;nbsp; &amp;nbsp; &amp;nbsp; for(j = 0; j &amp;lt; 3; j++) {&lt;/span&gt;&lt;/font&gt;&lt;/p&gt;&lt;p style=&quot;language:en-ID;margin-top:0pt;margin-bottom:0pt;margin-left:0in;&amp;lt;br/&amp;gt;text-align:left;direction:ltr;unicode-bidi:embed;mso-line-break-override:none;&amp;lt;br/&amp;gt;word-break:normal;punctuation-wrap:hanging&quot;&gt;&lt;font face=&quot;Calibri&quot;&gt;&lt;span style=&quot;font-size: 16px;&quot;&gt;&amp;nbsp; &amp;nbsp; &amp;nbsp; &amp;nbsp; &amp;nbsp; &amp;nbsp; printf(&quot;&amp;nbsp; Praktek %d: &quot;, j+1);&lt;/span&gt;&lt;/font&gt;&lt;/p&gt;&lt;p style=&quot;language:en-ID;margin-top:0pt;margin-bottom:0pt;margin-left:0in;&amp;lt;br/&amp;gt;text-align:left;direction:ltr;unicode-bidi:embed;mso-line-break-override:none;&amp;lt;br/&amp;gt;word-break:normal;punctuation-wrap:hanging&quot;&gt;&lt;span style=&quot;font-size: 16px; font-family: Calibri; background-color: transparent; color: light-dark(rgb(0, 0, 0), rgb(255, 255, 255));&quot;&gt;&amp;nbsp; &amp;nbsp; &amp;nbsp;&amp;nbsp;&lt;/span&gt;&lt;span style=&quot;font-size: 16px; font-family: Calibri; background-color: transparent; color: light-dark(rgb(0, 0, 0), rgb(255, 255, 255));&quot;&gt;&amp;nbsp; &amp;nbsp; &amp;nbsp; &amp;nbsp; &amp;nbsp; &amp;nbsp; scanf(&quot;%d&quot;, &amp;amp;nilai[i][j]);&lt;/span&gt;&lt;span style=&quot;background-color: transparent; color: light-dark(rgb(0, 0, 0), rgb(255, 255, 255)); font-family: Calibri; font-size: 16px;&quot;&gt;&amp;nbsp; }&lt;/span&gt;&lt;/p&gt;&lt;p style=&quot;language:en-ID;margin-top:0pt;margin-bottom:0pt;margin-left:0in;&amp;lt;br/&amp;gt;text-align:left;direction:ltr;unicode-bidi:embed;mso-line-break-override:none;&amp;lt;br/&amp;gt;word-break:normal;punctuation-wrap:hanging&quot;&gt;&lt;font face=&quot;Calibri&quot;&gt;&lt;span style=&quot;font-size: 16px;&quot;&gt;&amp;nbsp; &amp;nbsp; }&lt;/span&gt;&lt;/font&gt;&lt;/p&gt;" style="rounded=0;whiteSpace=wrap;html=1;align=left;" vertex="1" parent="1">
          <mxGeometry x="70" y="1050" width="420" height="190" as="geometry" />
        </mxCell>
        <mxCell id="RQTw91TnuGu3f8tLTRjR-32" value="" style="edgeStyle=orthogonalEdgeStyle;rounded=0;orthogonalLoop=1;jettySize=auto;html=1;" edge="1" parent="1" source="RQTw91TnuGu3f8tLTRjR-26" target="RQTw91TnuGu3f8tLTRjR-31">
          <mxGeometry relative="1" as="geometry" />
        </mxCell>
        <mxCell id="RQTw91TnuGu3f8tLTRjR-26" value="proses Input selsai?" style="rhombus;whiteSpace=wrap;html=1;" vertex="1" parent="1">
          <mxGeometry x="200" y="1280" width="160" height="140" as="geometry" />
        </mxCell>
        <mxCell id="RQTw91TnuGu3f8tLTRjR-28" style="edgeStyle=orthogonalEdgeStyle;rounded=0;orthogonalLoop=1;jettySize=auto;html=1;exitX=0;exitY=0.5;exitDx=0;exitDy=0;entryX=0;entryY=0.5;entryDx=0;entryDy=0;entryPerimeter=0;" edge="1" parent="1" source="RQTw91TnuGu3f8tLTRjR-26" target="RQTw91TnuGu3f8tLTRjR-22">
          <mxGeometry relative="1" as="geometry">
            <Array as="points">
              <mxPoint x="30" y="1350" />
              <mxPoint x="30" y="980" />
              <mxPoint x="180" y="980" />
            </Array>
          </mxGeometry>
        </mxCell>
        <mxCell id="RQTw91TnuGu3f8tLTRjR-36" value="" style="edgeStyle=orthogonalEdgeStyle;rounded=0;orthogonalLoop=1;jettySize=auto;html=1;" edge="1" parent="1" source="RQTw91TnuGu3f8tLTRjR-31" target="RQTw91TnuGu3f8tLTRjR-35">
          <mxGeometry relative="1" as="geometry" />
        </mxCell>
        <mxCell id="RQTw91TnuGu3f8tLTRjR-31" value="&lt;p style=&quot;language:en-ID;margin-top:0pt;margin-bottom:0pt;margin-left:0in;&amp;lt;br/&amp;gt;text-align:left;direction:ltr;unicode-bidi:embed;mso-line-break-override:none;&amp;lt;br/&amp;gt;word-break:normal;punctuation-wrap:hanging&quot;&gt;&lt;font face=&quot;Calibri&quot;&gt;&lt;span style=&quot;font-size: 16px;&quot;&gt;simpan nilai ke nilai[i][j]&lt;/span&gt;&lt;/font&gt;&lt;/p&gt;" style="rounded=0;whiteSpace=wrap;html=1;" vertex="1" parent="1">
          <mxGeometry x="150" y="1470" width="260" height="100" as="geometry" />
        </mxCell>
        <mxCell id="RQTw91TnuGu3f8tLTRjR-38" value="" style="edgeStyle=orthogonalEdgeStyle;rounded=0;orthogonalLoop=1;jettySize=auto;html=1;" edge="1" parent="1" source="RQTw91TnuGu3f8tLTRjR-35" target="RQTw91TnuGu3f8tLTRjR-37">
          <mxGeometry relative="1" as="geometry" />
        </mxCell>
        <mxCell id="RQTw91TnuGu3f8tLTRjR-35" value="&lt;p style=&quot;language:en-ID;margin-top:0pt;margin-bottom:0pt;margin-left:0in;&amp;lt;br/&amp;gt;text-align:left;direction:ltr;unicode-bidi:embed;mso-line-break-override:none;&amp;lt;br/&amp;gt;word-break:normal;punctuation-wrap:hanging&quot;&gt;&lt;font face=&quot;Calibri&quot;&gt;&lt;span style=&quot;font-size: 16px;&quot;&gt;&amp;nbsp; &amp;nbsp;Tampilkan hasil&lt;/span&gt;&lt;/font&gt;&lt;/p&gt;&lt;p style=&quot;language:en-ID;margin-top:0pt;margin-bottom:0pt;margin-left:0in;&amp;lt;br/&amp;gt;text-align:left;direction:ltr;unicode-bidi:embed;mso-line-break-override:none;&amp;lt;br/&amp;gt;word-break:normal;punctuation-wrap:hanging&quot;&gt;&lt;font face=&quot;Calibri&quot;&gt;&lt;span style=&quot;font-size: 16px;&quot;&gt;&amp;nbsp; &amp;nbsp; for(i = 0; i &amp;lt; 3; i++) {&lt;/span&gt;&lt;/font&gt;&lt;/p&gt;&lt;p style=&quot;language:en-ID;margin-top:0pt;margin-bottom:0pt;margin-left:0in;&amp;lt;br/&amp;gt;text-align:left;direction:ltr;unicode-bidi:embed;mso-line-break-override:none;&amp;lt;br/&amp;gt;word-break:normal;punctuation-wrap:hanging&quot;&gt;&lt;font face=&quot;Calibri&quot;&gt;&lt;span style=&quot;font-size: 16px;&quot;&gt;&amp;nbsp; &amp;nbsp; &amp;nbsp; &amp;nbsp; printf(&quot;%-10d&quot;, i+1);&amp;nbsp; // nomor mahasiswa&lt;/span&gt;&lt;/font&gt;&lt;/p&gt;&lt;p style=&quot;language:en-ID;margin-top:0pt;margin-bottom:0pt;margin-left:0in;&amp;lt;br/&amp;gt;text-align:left;direction:ltr;unicode-bidi:embed;mso-line-break-override:none;&amp;lt;br/&amp;gt;word-break:normal;punctuation-wrap:hanging&quot;&gt;&lt;font face=&quot;Calibri&quot;&gt;&lt;span style=&quot;font-size: 16px;&quot;&gt;&amp;nbsp; &amp;nbsp; &amp;nbsp; &amp;nbsp; for(j = 0; j &amp;lt; 3; j++) {&lt;/span&gt;&lt;/font&gt;&lt;/p&gt;&lt;p style=&quot;language:en-ID;margin-top:0pt;margin-bottom:0pt;margin-left:0in;&amp;lt;br/&amp;gt;text-align:left;direction:ltr;unicode-bidi:embed;mso-line-break-override:none;&amp;lt;br/&amp;gt;word-break:normal;punctuation-wrap:hanging&quot;&gt;&lt;font face=&quot;Calibri&quot;&gt;&lt;span style=&quot;font-size: 16px;&quot;&gt;&amp;nbsp; &amp;nbsp; &amp;nbsp; &amp;nbsp; &amp;nbsp; &amp;nbsp; printf(&quot;%-10d&quot;, nilai[i][j]);&lt;/span&gt;&lt;/font&gt;&lt;/p&gt;&lt;p style=&quot;language:en-ID;margin-top:0pt;margin-bottom:0pt;margin-left:0in;&amp;lt;br/&amp;gt;text-align:left;direction:ltr;unicode-bidi:embed;mso-line-break-override:none;&amp;lt;br/&amp;gt;word-break:normal;punctuation-wrap:hanging&quot;&gt;&lt;font face=&quot;Calibri&quot;&gt;&lt;span style=&quot;font-size: 16px;&quot;&gt;&amp;nbsp; &amp;nbsp; &amp;nbsp; &amp;nbsp; }&lt;/span&gt;&lt;/font&gt;&lt;/p&gt;&lt;p style=&quot;language:en-ID;margin-top:0pt;margin-bottom:0pt;margin-left:0in;&amp;lt;br/&amp;gt;text-align:left;direction:ltr;unicode-bidi:embed;mso-line-break-override:none;&amp;lt;br/&amp;gt;word-break:normal;punctuation-wrap:hanging&quot;&gt;&lt;font face=&quot;Calibri&quot;&gt;&lt;span style=&quot;font-size: 16px;&quot;&gt;&amp;nbsp; &amp;nbsp; &amp;nbsp; &amp;nbsp; printf(&quot;\n&quot;);&lt;/span&gt;&lt;/font&gt;&lt;/p&gt;&lt;p style=&quot;margin-top: 0pt; margin-bottom: 0pt; margin-left: 0in; direction: ltr; unicode-bidi: embed;&quot;&gt;&lt;font face=&quot;Calibri&quot;&gt;&lt;span style=&quot;font-size: 16px;&quot;&gt;&amp;nbsp; &amp;nbsp; }&lt;/span&gt;&lt;/font&gt;&lt;/p&gt;" style="rounded=0;whiteSpace=wrap;html=1;align=left;" vertex="1" parent="1">
          <mxGeometry x="70" y="1630" width="420" height="180" as="geometry" />
        </mxCell>
        <mxCell id="RQTw91TnuGu3f8tLTRjR-44" value="" style="edgeStyle=orthogonalEdgeStyle;rounded=0;orthogonalLoop=1;jettySize=auto;html=1;" edge="1" parent="1" source="RQTw91TnuGu3f8tLTRjR-37" target="RQTw91TnuGu3f8tLTRjR-43">
          <mxGeometry relative="1" as="geometry" />
        </mxCell>
        <mxCell id="RQTw91TnuGu3f8tLTRjR-37" value="Hasil" style="shape=parallelogram;perimeter=parallelogramPerimeter;whiteSpace=wrap;html=1;fixedSize=1;align=center;rounded=0;" vertex="1" parent="1">
          <mxGeometry x="220" y="1850" width="120" height="60" as="geometry" />
        </mxCell>
        <mxCell id="RQTw91TnuGu3f8tLTRjR-43" value="Selesai" style="rounded=1;whiteSpace=wrap;html=1;arcSize=50;" vertex="1" parent="1">
          <mxGeometry x="220" y="1950" width="120" height="60" as="geometry" />
        </mxCell>
      </root>
    </mxGraphModel>
  </diagram>
</mxfile>
